<svg width="150" height="160" viewBox="0 0 150 160" fill="none" xmlns="http://www.w3.org/2000/svg">
<g filter="url(#filter0_d_13_78)">
<rect width="150" height="150" rx="15" fill="#767676"/>
<rect x="4" y="4" width="142" height="142" rx="11" stroke="#BABABA" stroke-width="8"/>
</g>
<path d="M42.2152 111.392L75.1266 120.633L108.165 111.392L115 30H75.1266H35L36.3924 45.8228H75.1266H97.4051L95.8861 62.2785H75.1266H55.8861L57.4051 78.3544H75.1266H94.6203L92.7215 98.7342L75.1266 103.797L57.1519 98.481L55.8861 85.9494H39.9367L42.2152 111.392Z" fill="#212121" stroke="#212121"/>
<path d="M42 111.5L75 120.645V103.5L57.5 98.5L55.8942 86H40L42 111.5Z" fill="#474747" stroke="#474747"/>
<path d="M36.3125 46H74.5V30H35L36.3125 46Z" fill="#474747" stroke="#474747"/>
<path d="M57.398 78.3477H74.5001V62H55.8555L57.398 78.3477Z" fill="#474747" stroke="#474747"/>
<defs>
<filter id="filter0_d_13_78" x="0" y="0" width="150" height="160" filterUnits="userSpaceOnUse" color-interpolation-filters="sRGB">
<feFlood flood-opacity="0" result="BackgroundImageFix"/>
<feColorMatrix in="SourceAlpha" type="matrix" values="0 0 0 0 0 0 0 0 0 0 0 0 0 0 0 0 0 0 127 0" result="hardAlpha"/>
<feOffset dy="10"/>
<feComposite in2="hardAlpha" operator="out"/>
<feColorMatrix type="matrix" values="0 0 0 0 0.729412 0 0 0 0 0.729412 0 0 0 0 0.729412 0 0 0 1 0"/>
<feBlend mode="normal" in2="BackgroundImageFix" result="effect1_dropShadow_13_78"/>
<feBlend mode="normal" in="SourceGraphic" in2="effect1_dropShadow_13_78" result="shape"/>
</filter>
</defs>
</svg>
