<svg width="150" height="160" viewBox="0 0 150 160" fill="none" xmlns="http://www.w3.org/2000/svg">
<g filter="url(#filter0_d_13_88)">
<rect width="150" height="150" rx="15" fill="#767676"/>
<rect x="4" y="4" width="142" height="142" rx="11" stroke="#BABABA" stroke-width="8"/>
</g>
<path d="M125 74.5373C125 67.9128 116.704 61.6347 103.985 57.7415C106.92 44.7778 105.616 34.4639 99.8675 31.1618C98.5426 30.3873 96.9935 30.0204 95.3017 30.0204V34.5658C96.2393 34.5658 96.9935 34.7493 97.6254 35.0958C100.397 36.6857 101.6 42.7395 100.662 50.5259C100.438 52.4419 100.071 54.4599 99.6229 56.5186C95.6278 55.5402 91.2658 54.786 86.6796 54.2968C83.9278 50.5259 81.0742 47.1015 78.2002 44.1052C84.8451 37.9291 91.0824 34.5455 95.3221 34.5455V30C89.7167 30 82.3787 33.9951 74.9592 40.9254C67.5397 34.0359 60.2018 30.0815 54.5964 30.0815V34.627C58.8157 34.627 65.0734 37.9902 71.7183 44.1256C68.8647 47.1219 66.011 50.5259 63.3 54.2968C58.6934 54.786 54.3314 55.5402 50.3363 56.5389C49.8675 54.5006 49.521 52.5234 49.2764 50.6278C48.3184 42.8414 49.5006 36.7876 52.2523 35.1773C52.8638 34.8104 53.6588 34.6474 54.5964 34.6474V30.1019C52.8842 30.1019 51.3351 30.4688 49.9898 31.2434C44.2621 34.5455 42.978 44.839 45.9335 57.7619C33.2552 61.6755 25 67.9331 25 74.5373C25 81.1618 33.296 87.4399 46.0151 91.3331C43.0799 104.297 44.3844 114.611 50.1325 117.913C51.4574 118.687 53.0065 119.054 54.7187 119.054C60.3241 119.054 67.662 115.059 75.0815 108.129C82.501 115.018 89.839 118.973 95.4444 118.973C97.1565 118.973 98.7057 118.606 100.051 117.831C105.779 114.529 107.063 104.236 104.107 91.3127C116.745 87.4195 125 81.1415 125 74.5373ZM98.4611 60.9417C97.7069 63.5711 96.7693 66.2821 95.7093 68.9931C94.8736 67.3624 93.9971 65.7318 93.0391 64.1011C92.1015 62.4705 91.1027 60.8806 90.104 59.3314C92.9984 59.7595 95.7909 60.2894 98.4611 60.9417ZM89.1256 82.6498C87.5357 85.4016 85.905 88.0106 84.2132 90.4362C81.1761 90.7012 78.0982 90.8439 75 90.8439C71.9221 90.8439 68.8443 90.7012 65.8276 90.4566C64.1358 88.031 62.4847 85.4423 60.8948 82.711C59.3457 80.0408 57.9393 77.3298 56.6551 74.5985C57.9189 71.8671 59.3457 69.1358 60.8744 66.4656C62.4643 63.7138 64.095 61.1048 65.7868 58.6792C68.8239 58.4142 71.9018 58.2715 75 58.2715C78.0779 58.2715 81.1557 58.4142 84.1724 58.6588C85.8642 61.0844 87.5153 63.6731 89.1052 66.4044C90.6543 69.0746 92.0607 71.7856 93.3449 74.5169C92.0607 77.2483 90.6543 79.9796 89.1256 82.6498ZM95.7093 80C96.81 82.7314 97.7477 85.4627 98.5222 88.1125C95.852 88.7648 93.0391 89.3151 90.1243 89.7432C91.1231 88.1737 92.1219 86.5634 93.0595 84.9124C93.9972 83.2817 94.8736 81.6307 95.7093 80ZM75.0408 101.749C73.1451 99.7921 71.2495 97.6111 69.3742 95.2263C71.2087 95.3078 73.084 95.3689 74.9796 95.3689C76.8956 95.3689 78.7913 95.3282 80.6461 95.2263C78.8117 97.6111 76.916 99.7921 75.0408 101.749ZM59.8757 89.7432C56.9812 89.3151 54.1887 88.7852 51.5185 88.1329C52.2727 85.5035 53.2104 82.7925 54.2703 80.0815C55.106 81.7122 55.9825 83.3429 56.9405 84.9735C57.8985 86.6042 58.8769 88.1941 59.8757 89.7432ZM74.9389 47.3257C76.8345 49.2825 78.7301 51.4635 80.6054 53.8484C78.7709 53.7668 76.8956 53.7057 75 53.7057C73.084 53.7057 71.1883 53.7464 69.3335 53.8484C71.168 51.4635 73.0636 49.2825 74.9389 47.3257ZM59.8553 59.3314C58.8565 60.9009 57.8577 62.5112 56.9201 64.1623C55.9825 65.7929 55.106 67.4236 54.2703 69.0542C53.1696 66.3229 52.232 63.5915 51.4574 60.9417C54.1276 60.3098 56.9405 59.7595 59.8553 59.3314ZM41.4085 84.8512C34.1928 81.7733 29.5251 77.7375 29.5251 74.5373C29.5251 71.3371 34.1928 67.2809 41.4085 64.2234C43.1614 63.4692 45.0775 62.7966 47.0546 62.1647C48.2165 66.1598 49.7452 70.318 51.6408 74.5781C49.7656 78.8178 48.2572 82.9556 47.1158 86.9303C45.0978 86.2984 43.1818 85.6054 41.4085 84.8512ZM52.3746 113.979C49.6025 112.389 48.3999 106.335 49.3375 98.5487C49.5618 96.6327 49.9287 94.6148 50.3771 92.5561C54.3722 93.5345 58.7342 94.2886 63.3204 94.7778C66.0722 98.5487 68.9258 101.973 71.7998 104.969C65.1549 111.146 58.9177 114.529 54.6779 114.529C53.7607 114.509 52.9861 114.325 52.3746 113.979ZM100.724 98.4468C101.682 106.233 100.499 112.287 97.7477 113.897C97.1362 114.264 96.3412 114.427 95.4036 114.427C91.1843 114.427 84.9266 111.064 78.2817 104.929C81.1353 101.932 83.989 98.5283 86.7 94.7575C91.3066 94.2683 95.6686 93.5141 99.6637 92.5153C100.132 94.574 100.499 96.5512 100.724 98.4468ZM108.571 84.8512C106.818 85.6054 104.902 86.278 102.925 86.9099C101.763 82.9148 100.234 78.7566 98.3388 74.4965C100.214 70.2568 101.722 66.119 102.864 62.1443C104.882 62.7762 106.798 63.4692 108.592 64.2234C115.807 67.3013 120.475 71.3371 120.475 74.5373C120.455 77.7375 115.787 81.7937 108.571 84.8512Z" fill="#212121"/>
<path d="M74.9802 83.8524C80.1248 83.8524 84.2953 79.6819 84.2953 74.5373C84.2953 69.3927 80.1248 65.2222 74.9802 65.2222C69.8356 65.2222 65.665 69.3927 65.665 74.5373C65.665 79.6819 69.8356 83.8524 74.9802 83.8524Z" fill="#212121"/>
<defs>
<filter id="filter0_d_13_88" x="0" y="0" width="150" height="160" filterUnits="userSpaceOnUse" color-interpolation-filters="sRGB">
<feFlood flood-opacity="0" result="BackgroundImageFix"/>
<feColorMatrix in="SourceAlpha" type="matrix" values="0 0 0 0 0 0 0 0 0 0 0 0 0 0 0 0 0 0 127 0" result="hardAlpha"/>
<feOffset dy="10"/>
<feComposite in2="hardAlpha" operator="out"/>
<feColorMatrix type="matrix" values="0 0 0 0 0.729412 0 0 0 0 0.729412 0 0 0 0 0.729412 0 0 0 1 0"/>
<feBlend mode="normal" in2="BackgroundImageFix" result="effect1_dropShadow_13_88"/>
<feBlend mode="normal" in="SourceGraphic" in2="effect1_dropShadow_13_88" result="shape"/>
</filter>
</defs>
</svg>
