<svg width="150" height="160" viewBox="0 0 150 160" fill="none" xmlns="http://www.w3.org/2000/svg">
<g filter="url(#filter0_d_24_36)">
<rect width="150" height="150" rx="15" fill="#767676"/>
<rect x="4" y="4" width="142" height="142" rx="11" stroke="#BABABA" stroke-width="8"/>
</g>
<g clip-path="url(#clip0_24_36)">
<path d="M85.4653 49.7071C85.4653 43.9255 80.7781 39.2383 74.9853 39.2383C69.1973 39.2383 64.5085 43.9255 64.5085 49.7071C60.4285 45.6191 53.7925 45.6191 49.7109 49.7071C45.6157 53.8031 45.6157 60.4335 49.7109 64.5263C43.9237 64.5263 39.2285 69.2135 39.2285 74.9943C39.2285 80.7783 43.9245 85.4727 49.7109 85.4727C45.6157 89.5607 45.6157 96.1887 49.7109 100.285C53.7925 104.368 60.4285 104.368 64.5085 100.285C64.5085 106.067 69.1965 110.751 74.9853 110.751C80.7773 110.751 85.4653 106.067 85.4653 100.285C89.5597 104.368 96.1981 104.368 100.276 100.285C104.357 96.1887 104.357 89.5567 100.276 85.4727C106.049 85.4727 110.741 80.7775 110.741 74.9943C110.741 69.2127 106.049 64.5263 100.276 64.5263C104.357 60.4311 104.357 53.8015 100.276 49.7071C96.1981 45.6191 89.5613 45.6191 85.4653 49.7071Z" fill="#474747"/>
<path d="M79.003 53.723V65.3134L87.2086 57.111C87.2086 55.6614 87.7614 54.2166 88.8614 53.107C91.0854 50.8902 94.6814 50.8902 96.8806 53.107C99.0974 55.3198 99.0974 58.911 96.8806 61.1286C95.779 62.2286 94.3246 62.7862 92.8686 62.7862L84.6814 70.9846H96.2726C97.3046 69.9606 98.7158 69.3238 100.281 69.3238C103.401 69.3238 105.944 71.867 105.944 74.9934C105.944 78.1182 103.401 80.6638 100.281 80.6638C98.7158 80.6638 97.3046 80.0254 96.2726 79.0062H84.6806L92.8638 87.2014C94.323 87.2014 95.7774 87.7566 96.8758 88.8702C99.095 91.0774 99.095 94.6702 96.8758 96.8782C94.6758 99.0974 91.0846 99.0974 88.8558 96.8782C87.7582 95.7806 87.2046 94.3246 87.2046 92.8758L79.0006 84.6742V96.2734C80.0174 97.2942 80.6678 98.7166 80.6678 100.284C80.6678 103.409 78.1262 105.945 74.9894 105.945C71.8542 105.945 69.3142 103.412 69.3142 100.284C69.3142 98.7166 69.963 97.2982 70.979 96.2734V84.6742L62.791 92.8758C62.791 94.3254 62.227 95.7774 61.1238 96.8782C58.9086 99.0958 55.323 99.0958 53.1046 96.8782C50.8846 94.667 50.8846 91.0758 53.1046 88.8686C54.2062 87.7566 55.6758 87.1998 57.1142 87.1998L65.3198 79.0062H53.7318C52.7006 80.027 51.2742 80.6638 49.7198 80.6638C46.5862 80.6638 44.043 78.1198 44.043 74.9934C44.043 71.867 46.5846 69.3238 49.7198 69.3238C51.2718 69.3238 52.6998 69.9606 53.7318 70.9846H65.3222L57.1174 62.7878C55.6798 62.7878 54.2118 62.2302 53.1078 61.131C50.8878 58.9134 50.8878 55.323 53.1078 53.1094C55.3262 50.8926 58.9126 50.8926 61.1294 53.1094C62.2294 54.2182 62.7958 55.6654 62.7958 57.1134L70.9838 65.315V53.7246C69.9678 52.695 69.3182 51.2822 69.3182 49.7062C69.3182 46.5798 71.8582 44.043 74.995 44.043C78.1302 44.043 80.6726 46.5774 80.6726 49.7062C80.671 51.2838 80.0198 52.6942 79.003 53.723Z" fill="#212121"/>
<path d="M39.2383 75H110.742V107C110.742 109.667 109.409 111 106.742 111H43.2383C40.5716 111 39.2383 109.667 39.2383 107V75Z" fill="black"/>
<path d="M46.7245 78.3691H103.84C106.166 78.3691 108.089 80.2771 108.089 82.6211V96.9491C86.0221 94.2267 64.1485 90.4491 42.4805 90.8027V82.6211C42.4813 80.2771 44.3933 78.3691 46.7245 78.3691Z" fill="#343434"/>
<path d="M49.6494 93.3423C47.967 91.6567 46.9238 89.3199 46.9238 86.7399C46.9238 81.5839 51.1022 77.4023 56.2566 77.4023C61.4134 77.4023 65.5902 81.5823 65.5902 86.7399H60.1246C60.1246 84.6007 58.3902 82.8703 56.2566 82.8703C54.1262 82.8703 52.3862 84.6007 52.3862 86.7399C52.3862 87.8103 52.8254 88.7687 53.5182 89.4759C54.2246 90.1751 55.199 90.5999 56.2566 90.5999V90.6095C58.8422 90.6095 61.1726 91.6567 62.851 93.3423C64.5454 95.0311 65.5902 97.3695 65.5902 99.9407C65.5902 105.104 61.4134 109.285 56.2566 109.285C51.103 109.285 46.9238 105.107 46.9238 99.9407H52.3862C52.3862 102.084 54.1262 103.809 56.2566 103.809C58.3902 103.809 60.1246 102.084 60.1246 99.9407C60.1246 98.8775 59.6886 97.9191 58.9814 97.2151C58.2902 96.5111 57.3158 96.0807 56.2566 96.0807C53.6726 96.0807 51.343 95.0295 49.6494 93.3423Z" fill="#474747" stroke="black" stroke-width="0.005035"/>
<path d="M84.2675 77.4072L77.6723 109.286H72.1923L65.5859 77.4072H71.0627L74.9331 96.0768L78.8011 77.4072H84.2675Z" fill="#474747" stroke="black" stroke-width="0.005035"/>
<path d="M93.6028 90.6127H102.949V99.944C102.949 105.106 98.7684 109.286 93.614 109.286C88.4612 109.286 84.2812 105.106 84.2812 99.944V86.7431H84.2676C84.2676 81.5855 88.4604 77.4023 93.6012 77.4023C98.7684 77.4023 102.948 81.5823 102.948 86.7431H97.4684C97.4684 84.6039 95.7468 82.8735 93.6012 82.8735C91.4836 82.8735 89.7452 84.6039 89.7452 86.7431V99.944C89.7452 102.084 91.4836 103.814 93.6012 103.814C95.7468 103.814 97.4684 102.084 97.4684 99.9519V99.9424V96.0807H93.6012L93.6028 90.6127Z" fill="#474747" stroke="black" stroke-width="0.005035"/>
</g>
<defs>
<filter id="filter0_d_24_36" x="0" y="0" width="150" height="160" filterUnits="userSpaceOnUse" color-interpolation-filters="sRGB">
<feFlood flood-opacity="0" result="BackgroundImageFix"/>
<feColorMatrix in="SourceAlpha" type="matrix" values="0 0 0 0 0 0 0 0 0 0 0 0 0 0 0 0 0 0 127 0" result="hardAlpha"/>
<feOffset dy="10"/>
<feComposite in2="hardAlpha" operator="out"/>
<feColorMatrix type="matrix" values="0 0 0 0 0.729412 0 0 0 0 0.729412 0 0 0 0 0.729412 0 0 0 1 0"/>
<feBlend mode="normal" in2="BackgroundImageFix" result="effect1_dropShadow_24_36"/>
<feBlend mode="normal" in="SourceGraphic" in2="effect1_dropShadow_24_36" result="shape"/>
</filter>
<clipPath id="clip0_24_36">
<rect width="80" height="80" fill="white" transform="translate(35 35)"/>
</clipPath>
</defs>
</svg>
