<svg width="564" height="132" viewBox="0 0 564 132" fill="none" xmlns="http://www.w3.org/2000/svg">
<g filter="url(#filter0_d_56_2)">
<path d="M86.1094 89H69.75V60.5H45.5156V89H29.0625V20.75H45.5156V47.8438H69.75V20.75H86.1094V89ZM124.406 89C123.844 87.9688 123.344 86.4531 122.906 84.4531C120 88.1094 115.938 89.9375 110.719 89.9375C105.938 89.9375 101.875 88.5 98.5312 85.625C95.1875 82.7188 93.5156 79.0781 93.5156 74.7031C93.5156 69.2031 95.5469 65.0469 99.6094 62.2344C103.672 59.4219 109.578 58.0156 117.328 58.0156H122.203V55.3438C122.203 50.6875 120.188 48.3594 116.156 48.3594C112.406 48.3594 110.531 50.2031 110.531 53.8906H94.7344C94.7344 48.9844 96.8125 45 100.969 41.9375C105.156 38.875 110.484 37.3438 116.953 37.3438C123.422 37.3438 128.531 38.9219 132.281 42.0781C136.031 45.2344 137.953 49.5625 138.047 55.0625V77.5156C138.109 82.1719 138.828 85.7344 140.203 88.2031V89H124.406ZM114.516 78.6875C116.484 78.6875 118.109 78.2656 119.391 77.4219C120.703 76.5781 121.641 75.625 122.203 74.5625V66.4531H117.609C112.109 66.4531 109.359 68.9219 109.359 73.8594C109.359 75.2969 109.844 76.4688 110.812 77.375C111.781 78.25 113.016 78.6875 114.516 78.6875ZM193.922 64.0625C193.922 72.375 192.203 78.7656 188.766 83.2344C185.328 87.7031 180.484 89.9375 174.234 89.9375C169.078 89.9375 164.922 87.8906 161.766 83.7969L161.109 89H146.953V17H162.75V42.3594C165.688 39.0156 169.484 37.3438 174.141 37.3438C180.453 37.3438 185.328 39.6094 188.766 44.1406C192.203 48.6719 193.922 55.0469 193.922 63.2656V64.0625ZM178.078 63.0781C178.078 58.2031 177.422 54.7344 176.109 52.6719C174.828 50.5781 172.844 49.5312 170.156 49.5312C166.594 49.5312 164.125 50.8906 162.75 53.6094V73.7656C164.094 76.4531 166.594 77.7969 170.25 77.7969C173.969 77.7969 176.328 75.9844 177.328 72.3594C177.828 70.5781 178.078 67.4844 178.078 63.0781ZM217.594 89H201.75V38.2812H217.594V89ZM200.812 25.2031C200.812 22.9531 201.625 21.1094 203.25 19.6719C204.875 18.2344 206.984 17.5156 209.578 17.5156C212.172 17.5156 214.281 18.2344 215.906 19.6719C217.531 21.1094 218.344 22.9531 218.344 25.2031C218.344 27.4531 217.531 29.2969 215.906 30.7344C214.281 32.1719 212.172 32.8906 209.578 32.8906C206.984 32.8906 204.875 32.1719 203.25 30.7344C201.625 29.2969 200.812 27.4531 200.812 25.2031ZM244.031 89H228.188V17H244.031V89ZM270.469 89H254.625V38.2812H270.469V89ZM253.688 25.2031C253.688 22.9531 254.5 21.1094 256.125 19.6719C257.75 18.2344 259.859 17.5156 262.453 17.5156C265.047 17.5156 267.156 18.2344 268.781 19.6719C270.406 21.1094 271.219 22.9531 271.219 25.2031C271.219 27.4531 270.406 29.2969 268.781 30.7344C267.156 32.1719 265.047 32.8906 262.453 32.8906C259.859 32.8906 257.75 32.1719 256.125 30.7344C254.5 29.2969 253.688 27.4531 253.688 25.2031ZM278.25 63.2656C278.25 55.2344 279.984 48.9062 283.453 44.2812C286.922 39.6562 291.766 37.3438 297.984 37.3438C302.516 37.3438 306.328 39.125 309.422 42.6875V17H325.266V89H311.062L310.266 83.5625C307.016 87.8125 302.891 89.9375 297.891 89.9375C291.859 89.9375 287.078 87.625 283.547 83C280.016 78.375 278.25 71.7969 278.25 63.2656ZM294.047 64.25C294.047 73.25 296.672 77.75 301.922 77.75C305.422 77.75 307.922 76.2812 309.422 73.3438V54.0312C307.984 51.0312 305.516 49.5312 302.016 49.5312C297.141 49.5312 294.5 53.4688 294.094 61.3438L294.047 64.25ZM362.812 89C362.25 87.9688 361.75 86.4531 361.312 84.4531C358.406 88.1094 354.344 89.9375 349.125 89.9375C344.344 89.9375 340.281 88.5 336.938 85.625C333.594 82.7188 331.922 79.0781 331.922 74.7031C331.922 69.2031 333.953 65.0469 338.016 62.2344C342.078 59.4219 347.984 58.0156 355.734 58.0156H360.609V55.3438C360.609 50.6875 358.594 48.3594 354.562 48.3594C350.812 48.3594 348.938 50.2031 348.938 53.8906H333.141C333.141 48.9844 335.219 45 339.375 41.9375C343.562 38.875 348.891 37.3438 355.359 37.3438C361.828 37.3438 366.938 38.9219 370.688 42.0781C374.438 45.2344 376.359 49.5625 376.453 55.0625V77.5156C376.516 82.1719 377.234 85.7344 378.609 88.2031V89H362.812ZM352.922 78.6875C354.891 78.6875 356.516 78.2656 357.797 77.4219C359.109 76.5781 360.047 75.625 360.609 74.5625V66.4531H356.016C350.516 66.4531 347.766 68.9219 347.766 73.8594C347.766 75.2969 348.25 76.4688 349.219 77.375C350.188 78.25 351.422 78.6875 352.922 78.6875ZM383.25 63.2656C383.25 55.2344 384.984 48.9062 388.453 44.2812C391.922 39.6562 396.766 37.3438 402.984 37.3438C407.516 37.3438 411.328 39.125 414.422 42.6875V17H430.266V89H416.062L415.266 83.5625C412.016 87.8125 407.891 89.9375 402.891 89.9375C396.859 89.9375 392.078 87.625 388.547 83C385.016 78.375 383.25 71.7969 383.25 63.2656ZM399.047 64.25C399.047 73.25 401.672 77.75 406.922 77.75C410.422 77.75 412.922 76.2812 414.422 73.3438V54.0312C412.984 51.0312 410.516 49.5312 407.016 49.5312C402.141 49.5312 399.5 53.4688 399.094 61.3438L399.047 64.25ZM463.781 89.9375C456 89.9375 449.703 87.625 444.891 83C440.078 78.3438 437.672 72.2969 437.672 64.8594V63.5469C437.672 58.3594 438.625 53.7812 440.531 49.8125C442.469 45.8438 445.281 42.7812 448.969 40.625C452.656 38.4375 457.031 37.3438 462.094 37.3438C469.219 37.3438 474.844 39.5625 478.969 44C483.094 48.4062 485.156 54.5625 485.156 62.4688V68.6094H453.75C454.312 71.4531 455.547 73.6875 457.453 75.3125C459.359 76.9375 461.828 77.75 464.859 77.75C469.859 77.75 473.766 76 476.578 72.5L483.797 81.0312C481.828 83.75 479.031 85.9219 475.406 87.5469C471.812 89.1406 467.938 89.9375 463.781 89.9375ZM462 49.5312C457.375 49.5312 454.625 52.5938 453.75 58.7188H469.688V57.5C469.75 54.9688 469.109 53.0156 467.766 51.6406C466.422 50.2344 464.5 49.5312 462 49.5312ZM518.109 74.75C518.109 73.4062 517.406 72.3281 516 71.5156C514.594 70.7031 511.922 69.8594 507.984 68.9844C504.047 68.1094 500.797 66.9688 498.234 65.5625C495.672 64.125 493.719 62.3906 492.375 60.3594C491.031 58.3281 490.359 56 490.359 53.375C490.359 48.7188 492.281 44.8906 496.125 41.8906C499.969 38.8594 505 37.3438 511.219 37.3438C517.906 37.3438 523.281 38.8594 527.344 41.8906C531.406 44.9219 533.438 48.9062 533.438 53.8438H517.594C517.594 49.7812 515.453 47.75 511.172 47.75C509.516 47.75 508.125 48.2188 507 49.1562C505.875 50.0625 505.312 51.2031 505.312 52.5781C505.312 53.9844 506 55.125 507.375 56C508.75 56.875 510.938 57.5938 513.938 58.1562C516.969 58.7188 519.625 59.3906 521.906 60.1719C529.531 62.7969 533.344 67.5 533.344 74.2812C533.344 78.9062 531.281 82.6719 527.156 85.5781C523.062 88.4844 517.75 89.9375 511.219 89.9375C506.875 89.9375 503 89.1562 499.594 87.5938C496.188 86.0312 493.531 83.9062 491.625 81.2188C489.719 78.5312 488.766 75.7031 488.766 72.7344H503.531C503.594 75.0781 504.375 76.7969 505.875 77.8906C507.375 78.9531 509.297 79.4844 511.641 79.4844C513.797 79.4844 515.406 79.0469 516.469 78.1719C517.562 77.2969 518.109 76.1562 518.109 74.75Z" fill="#767676"/>
<path d="M86.1094 89V95H92.1094V89H86.1094ZM69.75 89H63.75V95H69.75V89ZM69.75 60.5H75.75V54.5H69.75V60.5ZM45.5156 60.5V54.5H39.5156V60.5H45.5156ZM45.5156 89V95H51.5156V89H45.5156ZM29.0625 89H23.0625V95H29.0625V89ZM29.0625 20.75V14.75H23.0625V20.75H29.0625ZM45.5156 20.75H51.5156V14.75H45.5156V20.75ZM45.5156 47.8438H39.5156V53.8438H45.5156V47.8438ZM69.75 47.8438V53.8438H75.75V47.8438H69.75ZM69.75 20.75V14.75H63.75V20.75H69.75ZM86.1094 20.75H92.1094V14.75H86.1094V20.75ZM86.1094 83H69.75V95H86.1094V83ZM75.75 89V60.5H63.75V89H75.75ZM69.75 54.5H45.5156V66.5H69.75V54.5ZM39.5156 60.5V89H51.5156V60.5H39.5156ZM45.5156 83H29.0625V95H45.5156V83ZM35.0625 89V20.75H23.0625V89H35.0625ZM29.0625 26.75H45.5156V14.75H29.0625V26.75ZM39.5156 20.75V47.8438H51.5156V20.75H39.5156ZM45.5156 53.8438H69.75V41.8438H45.5156V53.8438ZM75.75 47.8438V20.75H63.75V47.8438H75.75ZM69.75 26.75H86.1094V14.75H69.75V26.75ZM80.1094 20.75V89H92.1094V20.75H80.1094ZM124.406 89L119.139 91.8731L120.844 95H124.406V89ZM122.906 84.4531L128.768 83.1709L126.069 70.8322L118.209 80.7197L122.906 84.4531ZM98.5312 85.625L94.5952 90.1535L94.6073 90.1641L94.6195 90.1745L98.5312 85.625ZM122.203 58.0156V64.0156H128.203V58.0156H122.203ZM110.531 53.8906V59.8906H116.531V53.8906H110.531ZM94.7344 53.8906H88.7344V59.8906H94.7344V53.8906ZM100.969 41.9375L97.4268 37.0945L97.4182 37.1008L97.4096 37.1072L100.969 41.9375ZM138.047 55.0625H144.047V55.0114L144.046 54.9602L138.047 55.0625ZM138.047 77.5156H132.047V77.5559L132.047 77.5962L138.047 77.5156ZM140.203 88.2031H146.203V86.6449L145.445 85.2836L140.203 88.2031ZM140.203 89V95H146.203V89H140.203ZM119.391 77.4219L116.146 72.3748L116.118 72.3927L116.091 72.4108L119.391 77.4219ZM122.203 74.5625L127.506 77.3698L128.203 76.0528V74.5625H122.203ZM122.203 66.4531H128.203V60.4531H122.203V66.4531ZM110.812 77.375L106.714 81.7566L106.752 81.7925L106.791 81.8276L110.812 77.375ZM129.674 86.1269C129.513 85.8324 129.159 84.9619 128.768 83.1709L117.045 85.7353C117.528 87.9443 118.174 90.1051 119.139 91.8731L129.674 86.1269ZM118.209 80.7197C116.585 82.7631 114.352 83.9375 110.719 83.9375V95.9375C117.523 95.9375 123.415 93.4556 127.603 88.1866L118.209 80.7197ZM110.719 83.9375C107.243 83.9375 104.603 82.933 102.443 81.0755L94.6195 90.1745C99.1467 94.067 104.632 95.9375 110.719 95.9375V83.9375ZM102.467 81.0965C100.416 79.3132 99.5156 77.3159 99.5156 74.7031H87.5156C87.5156 80.8403 89.9594 86.1243 94.5952 90.1535L102.467 81.0965ZM99.5156 74.7031C99.5156 70.912 100.784 68.719 103.025 67.1675L96.1941 57.3012C90.3102 61.3747 87.5156 67.4943 87.5156 74.7031H99.5156ZM103.025 67.1675C105.661 65.3424 110.157 64.0156 117.328 64.0156V52.0156C109 52.0156 101.683 53.5014 96.1941 57.3012L103.025 67.1675ZM117.328 64.0156H122.203V52.0156H117.328V64.0156ZM128.203 58.0156V55.3438H116.203V58.0156H128.203ZM128.203 55.3438C128.203 52.2858 127.56 48.8721 125.228 46.1782C122.752 43.319 119.34 42.3594 116.156 42.3594V54.3594C116.6 54.3594 116.723 54.425 116.646 54.3952C116.603 54.3789 116.523 54.3418 116.423 54.2731C116.323 54.2035 116.231 54.1203 116.155 54.0327C115.997 53.8502 116.006 53.7644 116.06 53.9517C116.12 54.1571 116.203 54.5931 116.203 55.3438H128.203ZM116.156 42.3594C113.381 42.3594 110.193 43.0423 107.731 45.464C105.249 47.9041 104.531 51.0962 104.531 53.8906H116.531C116.531 53.4596 116.588 53.3294 116.565 53.3969C116.552 53.4365 116.517 53.5262 116.444 53.6452C116.37 53.7663 116.27 53.8964 116.144 54.0203C116.018 54.1441 115.89 54.2381 115.777 54.3048C115.667 54.3702 115.588 54.3986 115.564 54.4066C115.528 54.4185 115.692 54.3594 116.156 54.3594V42.3594ZM110.531 47.8906H94.7344V59.8906H110.531V47.8906ZM100.734 53.8906C100.734 51.0047 101.812 48.7687 104.528 46.7678L97.4096 37.1072C91.8125 41.2313 88.7344 46.9641 88.7344 53.8906H100.734ZM104.511 46.7805C107.44 44.6382 111.439 43.3438 116.953 43.3438V31.3438C109.529 31.3438 102.873 33.1118 97.4268 37.0945L104.511 46.7805ZM116.953 43.3438C122.465 43.3438 126.054 44.6791 128.418 46.6686L136.145 37.4877C131.009 33.1646 124.378 31.3438 116.953 31.3438V43.3438ZM128.418 46.6686C130.669 48.5637 131.98 51.1622 132.048 55.1648L144.046 54.9602C143.927 47.9628 141.393 41.905 136.145 37.4877L128.418 46.6686ZM132.047 55.0625V77.5156H144.047V55.0625H132.047ZM132.047 77.5962C132.116 82.6758 132.885 87.3947 134.961 91.1226L145.445 85.2836C144.771 84.074 144.103 81.6679 144.046 77.4351L132.047 77.5962ZM134.203 88.2031V89H146.203V88.2031H134.203ZM140.203 83H124.406V95H140.203V83ZM114.516 84.6875C117.328 84.6875 120.187 84.0819 122.691 82.4329L116.091 72.4108C116.032 72.4494 115.641 72.6875 114.516 72.6875V84.6875ZM122.635 82.4689C124.563 81.2295 126.338 79.5754 127.506 77.3698L116.9 71.7552C116.943 71.6746 116.843 71.9268 116.146 72.3748L122.635 82.4689ZM128.203 74.5625V66.4531H116.203V74.5625H128.203ZM122.203 60.4531H117.609V72.4531H122.203V60.4531ZM117.609 60.4531C114.085 60.4531 110.321 61.2302 107.414 63.8399C104.384 66.5601 103.359 70.2884 103.359 73.8594H115.359C115.359 73.1667 115.458 72.8215 115.5 72.7077C115.529 72.6287 115.515 72.6928 115.43 72.7695C115.273 72.9105 115.634 72.4531 117.609 72.4531V60.4531ZM103.359 73.8594C103.359 76.8027 104.423 79.6142 106.714 81.7566L114.911 72.9934C115.023 73.0979 115.167 73.282 115.268 73.5245C115.363 73.7561 115.359 73.8963 115.359 73.8594H103.359ZM106.791 81.8276C109.026 83.8466 111.766 84.6875 114.516 84.6875V72.6875C114.351 72.6875 114.357 72.6642 114.469 72.7041C114.524 72.7234 114.59 72.7529 114.66 72.7946C114.73 72.8363 114.789 72.8812 114.834 72.9224L106.791 81.8276ZM161.766 83.7969L166.517 80.1334L157.633 68.6107L155.813 83.0461L161.766 83.7969ZM161.109 89V95H166.4L167.062 89.7508L161.109 89ZM146.953 89H140.953V95H146.953V89ZM146.953 17V11H140.953V17H146.953ZM162.75 17H168.75V11H162.75V17ZM162.75 42.3594H156.75V58.2801L167.258 46.3193L162.75 42.3594ZM176.109 52.6719L170.992 55.8037L171.019 55.8486L171.047 55.8931L176.109 52.6719ZM162.75 53.6094L157.396 50.9015L156.75 52.1784V53.6094H162.75ZM162.75 73.7656H156.75V75.182L157.383 76.4489L162.75 73.7656ZM177.328 72.3594L171.551 70.7378L171.548 70.7508L171.544 70.7638L177.328 72.3594ZM187.922 64.0625C187.922 71.6542 186.337 76.5503 184.01 79.5761L193.521 86.8926C198.069 80.9809 199.922 73.0958 199.922 64.0625H187.922ZM184.01 79.5761C181.842 82.3938 178.853 83.9375 174.234 83.9375V95.9375C182.115 95.9375 188.814 93.0124 193.521 86.8926L184.01 79.5761ZM174.234 83.9375C170.944 83.9375 168.541 82.7581 166.517 80.1334L157.014 87.4604C161.303 93.0232 167.212 95.9375 174.234 95.9375V83.9375ZM155.813 83.0461L155.157 88.2492L167.062 89.7508L167.718 84.5477L155.813 83.0461ZM161.109 83H146.953V95H161.109V83ZM152.953 89V17H140.953V89H152.953ZM146.953 23H162.75V11H146.953V23ZM156.75 17V42.3594H168.75V17H156.75ZM167.258 46.3193C168.997 44.3389 171.12 43.3438 174.141 43.3438V31.3438C167.849 31.3438 162.378 33.6924 158.242 38.3994L167.258 46.3193ZM174.141 43.3438C178.813 43.3438 181.818 44.9102 183.985 47.7669L193.546 40.5143C188.838 34.3085 182.093 31.3438 174.141 31.3438V43.3438ZM183.985 47.7669C186.348 50.8813 187.922 55.7936 187.922 63.2656H199.922C199.922 54.3001 198.058 46.4624 193.546 40.5143L183.985 47.7669ZM187.922 63.2656V64.0625H199.922V63.2656H187.922ZM184.078 63.0781C184.078 57.9967 183.456 53.0403 181.171 49.4506L171.047 55.8931C171.388 56.4285 172.078 58.4096 172.078 63.0781H184.078ZM181.227 49.5401C178.737 45.4706 174.695 43.5312 170.156 43.5312V55.5312C170.44 55.5312 170.624 55.5589 170.728 55.5823C170.78 55.594 170.814 55.605 170.833 55.612C170.852 55.6189 170.86 55.6231 170.861 55.6232C170.861 55.6234 170.86 55.623 170.859 55.6221C170.857 55.6212 170.856 55.6201 170.854 55.6191C170.851 55.6166 170.852 55.6168 170.858 55.6225C170.867 55.6317 170.916 55.6809 170.992 55.8037L181.227 49.5401ZM170.156 43.5312C167.625 43.5312 165.064 44.0146 162.739 45.2949C160.36 46.6047 158.582 48.5562 157.396 50.9015L168.104 56.3172C168.293 55.9438 168.437 55.8563 168.527 55.8067C168.671 55.7276 169.125 55.5312 170.156 55.5312V43.5312ZM156.75 53.6094V73.7656H168.75V53.6094H156.75ZM157.383 76.4489C158.574 78.8309 160.386 80.7808 162.792 82.074C165.131 83.3312 167.708 83.7969 170.25 83.7969V71.7969C169.135 71.7969 168.634 71.5906 168.473 71.5041C168.379 71.4536 168.269 71.3879 168.117 71.0823L157.383 76.4489ZM170.25 83.7969C173.095 83.7969 175.997 83.0905 178.464 81.1956C180.924 79.3057 182.358 76.6891 183.112 73.9549L171.544 70.7638C171.298 71.6547 171.053 71.7568 171.153 71.6794C171.261 71.597 171.124 71.7969 170.25 71.7969V83.7969ZM183.105 73.9809C183.851 71.3243 184.078 67.4864 184.078 63.0781H172.078C172.078 67.4824 171.806 69.8319 171.551 70.7378L183.105 73.9809ZM217.594 89V95H223.594V89H217.594ZM201.75 89H195.75V95H201.75V89ZM201.75 38.2812V32.2812H195.75V38.2812H201.75ZM217.594 38.2812H223.594V32.2812H217.594V38.2812ZM217.594 83H201.75V95H217.594V83ZM207.75 89V38.2812H195.75V89H207.75ZM201.75 44.2812H217.594V32.2812H201.75V44.2812ZM211.594 38.2812V89H223.594V38.2812H211.594ZM206.812 25.2031C206.812 24.5994 206.941 24.4173 207.225 24.1659L199.275 15.1779C196.309 17.8015 194.812 21.3069 194.812 25.2031H206.812ZM207.225 24.1659C207.547 23.8813 208.148 23.5156 209.578 23.5156V11.5156C205.821 11.5156 202.203 12.5874 199.275 15.1779L207.225 24.1659ZM209.578 23.5156C211.009 23.5156 211.609 23.8813 211.931 24.1659L219.882 15.1779C216.953 12.5874 213.335 11.5156 209.578 11.5156V23.5156ZM211.931 24.1659C212.215 24.4173 212.344 24.5994 212.344 25.2031H224.344C224.344 21.3069 222.847 17.8015 219.882 15.1779L211.931 24.1659ZM212.344 25.2031C212.344 25.8069 212.215 25.989 211.931 26.2404L219.882 35.2284C222.847 32.6048 224.344 29.0994 224.344 25.2031H212.344ZM211.931 26.2404C211.609 26.5249 211.009 26.8906 209.578 26.8906V38.8906C213.335 38.8906 216.953 37.8188 219.882 35.2284L211.931 26.2404ZM209.578 26.8906C208.148 26.8906 207.547 26.5249 207.225 26.2404L199.275 35.2284C202.203 37.8188 205.821 38.8906 209.578 38.8906V26.8906ZM207.225 26.2404C206.941 25.989 206.812 25.8069 206.812 25.2031H194.812C194.812 29.0994 196.309 32.6048 199.275 35.2284L207.225 26.2404ZM244.031 89V95H250.031V89H244.031ZM228.188 89H222.188V95H228.188V89ZM228.188 17V11H222.188V17H228.188ZM244.031 17H250.031V11H244.031V17ZM244.031 83H228.188V95H244.031V83ZM234.188 89V17H222.188V89H234.188ZM228.188 23H244.031V11H228.188V23ZM238.031 17V89H250.031V17H238.031ZM270.469 89V95H276.469V89H270.469ZM254.625 89H248.625V95H254.625V89ZM254.625 38.2812V32.2812H248.625V38.2812H254.625ZM270.469 38.2812H276.469V32.2812H270.469V38.2812ZM270.469 83H254.625V95H270.469V83ZM260.625 89V38.2812H248.625V89H260.625ZM254.625 44.2812H270.469V32.2812H254.625V44.2812ZM264.469 38.2812V89H276.469V38.2812H264.469ZM259.688 25.2031C259.688 24.5994 259.816 24.4173 260.1 24.1659L252.15 15.1779C249.184 17.8015 247.688 21.3069 247.688 25.2031H259.688ZM260.1 24.1659C260.422 23.8813 261.023 23.5156 262.453 23.5156V11.5156C258.696 11.5156 255.078 12.5874 252.15 15.1779L260.1 24.1659ZM262.453 23.5156C263.884 23.5156 264.484 23.8813 264.806 24.1659L272.757 15.1779C269.828 12.5874 266.21 11.5156 262.453 11.5156V23.5156ZM264.806 24.1659C265.09 24.4173 265.219 24.5994 265.219 25.2031H277.219C277.219 21.3069 275.722 17.8015 272.757 15.1779L264.806 24.1659ZM265.219 25.2031C265.219 25.8069 265.09 25.989 264.806 26.2404L272.757 35.2284C275.722 32.6048 277.219 29.0994 277.219 25.2031H265.219ZM264.806 26.2404C264.484 26.5249 263.884 26.8906 262.453 26.8906V38.8906C266.21 38.8906 269.828 37.8188 272.757 35.2284L264.806 26.2404ZM262.453 26.8906C261.023 26.8906 260.422 26.5249 260.1 26.2404L252.15 35.2284C255.078 37.8188 258.696 38.8906 262.453 38.8906V26.8906ZM260.1 26.2404C259.816 25.989 259.688 25.8069 259.688 25.2031H247.688C247.688 29.0994 249.184 32.6048 252.15 35.2284L260.1 26.2404ZM309.422 42.6875L304.892 46.6216L315.422 58.7473V42.6875H309.422ZM309.422 17V11H303.422V17H309.422ZM325.266 17H331.266V11H325.266V17ZM325.266 89V95H331.266V89H325.266ZM311.062 89L305.126 89.87L305.878 95H311.062V89ZM310.266 83.5625L316.202 82.6925L314.14 68.619L305.499 79.9178L310.266 83.5625ZM294.047 64.25L288.048 64.1532L288.047 64.2016V64.25H294.047ZM309.422 73.3438L314.766 76.0724L315.422 74.787V73.3438H309.422ZM309.422 54.0312H315.422V52.668L314.833 51.4385L309.422 54.0312ZM294.094 61.3438L288.102 61.0346L288.096 61.1407L288.095 61.247L294.094 61.3438ZM284.25 63.2656C284.25 56.0382 285.815 51.1317 288.253 47.8813L278.653 40.6812C274.153 46.6808 272.25 54.4306 272.25 63.2656H284.25ZM288.253 47.8813C290.493 44.8951 293.488 43.3438 297.984 43.3438V31.3438C290.043 31.3438 283.351 34.4174 278.653 40.6812L288.253 47.8813ZM297.984 43.3438C300.697 43.3438 302.884 44.3095 304.892 46.6216L313.952 38.7534C309.772 33.9405 304.334 31.3438 297.984 31.3438V43.3438ZM315.422 42.6875V17H303.422V42.6875H315.422ZM309.422 23H325.266V11H309.422V23ZM319.266 17V89H331.266V17H319.266ZM325.266 83H311.062V95H325.266V83ZM316.999 88.13L316.202 82.6925L304.329 84.4325L305.126 89.87L316.999 88.13ZM305.499 79.9178C303.293 82.8038 300.875 83.9375 297.891 83.9375V95.9375C304.906 95.9375 310.739 92.8212 315.032 87.2072L305.499 79.9178ZM297.891 83.9375C293.65 83.9375 290.664 82.435 288.316 79.3589L278.778 86.6411C283.492 92.815 290.069 95.9375 297.891 95.9375V83.9375ZM288.316 79.3589C285.879 76.1674 284.25 71.0704 284.25 63.2656H272.25C272.25 72.5233 274.152 80.5826 278.778 86.6411L288.316 79.3589ZM288.047 64.25C288.047 69.1369 288.725 73.7843 290.833 77.3982C293.231 81.5091 297.183 83.75 301.922 83.75V71.75C301.487 71.75 301.397 71.6645 301.453 71.6968C301.512 71.7304 301.404 71.7043 301.198 71.3518C300.681 70.4657 300.047 68.3631 300.047 64.25H288.047ZM301.922 83.75C304.519 83.75 307.116 83.1995 309.461 81.8217C311.827 80.4319 313.569 78.4151 314.766 76.0724L304.078 70.6151C303.775 71.2099 303.517 71.3963 303.383 71.4752C303.228 71.5661 302.825 71.75 301.922 71.75V83.75ZM315.422 73.3438V54.0312H303.422V73.3438H315.422ZM314.833 51.4385C313.689 49.0519 311.981 46.9706 309.608 45.5286C307.253 44.098 304.631 43.5312 302.016 43.5312V55.5312C302.9 55.5312 303.262 55.7145 303.377 55.7839C303.472 55.8419 303.717 56.0106 304.011 56.624L314.833 51.4385ZM302.016 43.5312C297.646 43.5312 293.867 45.4569 291.396 49.1425C289.193 52.4267 288.328 56.6534 288.102 61.0346L300.086 61.6529C300.266 58.1591 300.924 56.4795 301.362 55.8263C301.532 55.5731 301.609 55.5599 301.563 55.5843C301.523 55.6052 301.621 55.5312 302.016 55.5312V43.5312ZM288.095 61.247L288.048 64.1532L300.046 64.3468L300.093 61.4405L288.095 61.247ZM362.812 89L357.545 91.8731L359.251 95H362.812V89ZM361.312 84.4531L367.174 83.1709L364.475 70.8322L356.616 80.7197L361.312 84.4531ZM336.938 85.625L333.001 90.1535L333.014 90.1641L333.026 90.1745L336.938 85.625ZM360.609 58.0156V64.0156H366.609V58.0156H360.609ZM348.938 53.8906V59.8906H354.938V53.8906H348.938ZM333.141 53.8906H327.141V59.8906H333.141V53.8906ZM339.375 41.9375L335.833 37.0945L335.824 37.1008L335.816 37.1072L339.375 41.9375ZM376.453 55.0625H382.453V55.0114L382.452 54.9602L376.453 55.0625ZM376.453 77.5156H370.453V77.5559L370.454 77.5962L376.453 77.5156ZM378.609 88.2031H384.609V86.6449L383.851 85.2836L378.609 88.2031ZM378.609 89V95H384.609V89H378.609ZM357.797 77.4219L354.552 72.3748L354.525 72.3927L354.497 72.4108L357.797 77.4219ZM360.609 74.5625L365.912 77.3698L366.609 76.0528V74.5625H360.609ZM360.609 66.4531H366.609V60.4531H360.609V66.4531ZM349.219 77.375L345.12 81.7566L345.158 81.7925L345.197 81.8276L349.219 77.375ZM368.08 86.1269C367.919 85.8324 367.566 84.9619 367.174 83.1709L355.451 85.7353C355.934 87.9443 356.581 90.1051 357.545 91.8731L368.08 86.1269ZM356.616 80.7197C354.991 82.7631 352.759 83.9375 349.125 83.9375V95.9375C355.929 95.9375 361.821 93.4556 366.009 88.1866L356.616 80.7197ZM349.125 83.9375C345.649 83.9375 343.01 82.933 340.849 81.0755L333.026 90.1745C337.553 94.067 343.039 95.9375 349.125 95.9375V83.9375ZM340.874 81.0965C338.822 79.3132 337.922 77.3159 337.922 74.7031H325.922C325.922 80.8403 328.366 86.1243 333.001 90.1535L340.874 81.0965ZM337.922 74.7031C337.922 70.912 339.19 68.719 341.431 67.1675L334.6 57.3012C328.716 61.3747 325.922 67.4943 325.922 74.7031H337.922ZM341.431 67.1675C344.067 65.3424 348.563 64.0156 355.734 64.0156V52.0156C347.406 52.0156 340.089 53.5014 334.6 57.3012L341.431 67.1675ZM355.734 64.0156H360.609V52.0156H355.734V64.0156ZM366.609 58.0156V55.3438H354.609V58.0156H366.609ZM366.609 55.3438C366.609 52.2858 365.966 48.8721 363.634 46.1782C361.158 43.319 357.746 42.3594 354.562 42.3594V54.3594C355.007 54.3594 355.129 54.425 355.052 54.3952C355.01 54.3789 354.929 54.3418 354.83 54.2731C354.729 54.2035 354.637 54.1203 354.562 54.0327C354.403 53.8502 354.413 53.7644 354.467 53.9517C354.526 54.1571 354.609 54.5931 354.609 55.3438H366.609ZM354.562 42.3594C351.788 42.3594 348.6 43.0423 346.137 45.464C343.655 47.9041 342.938 51.0962 342.938 53.8906H354.938C354.938 53.4596 354.994 53.3294 354.971 53.3969C354.958 53.4365 354.923 53.5262 354.85 53.6452C354.776 53.7663 354.677 53.8964 354.551 54.0203C354.425 54.1441 354.297 54.2381 354.184 54.3048C354.073 54.3702 353.995 54.3986 353.97 54.4066C353.934 54.4185 354.098 54.3594 354.562 54.3594V42.3594ZM348.938 47.8906H333.141V59.8906H348.938V47.8906ZM339.141 53.8906C339.141 51.0047 340.219 48.7687 342.934 46.7678L335.816 37.1072C330.219 41.2313 327.141 46.9641 327.141 53.8906H339.141ZM342.917 46.7805C345.846 44.6382 349.846 43.3438 355.359 43.3438V31.3438C347.936 31.3438 341.279 33.1118 335.833 37.0945L342.917 46.7805ZM355.359 43.3438C360.872 43.3438 364.46 44.6791 366.824 46.6686L374.551 37.4877C369.415 33.1646 362.785 31.3438 355.359 31.3438V43.3438ZM366.824 46.6686C369.076 48.5637 370.386 51.1622 370.454 55.1648L382.452 54.9602C382.333 47.9628 379.799 41.905 374.551 37.4877L366.824 46.6686ZM370.453 55.0625V77.5156H382.453V55.0625H370.453ZM370.454 77.5962C370.522 82.6758 371.291 87.3947 373.368 91.1226L383.851 85.2836C383.177 84.074 382.509 81.6679 382.453 77.4351L370.454 77.5962ZM372.609 88.2031V89H384.609V88.2031H372.609ZM378.609 83H362.812V95H378.609V83ZM352.922 84.6875C355.734 84.6875 358.593 84.0819 361.097 82.4329L354.497 72.4108C354.438 72.4494 354.047 72.6875 352.922 72.6875V84.6875ZM361.041 82.4689C362.97 81.2295 364.744 79.5754 365.912 77.3698L355.307 71.7552C355.349 71.6746 355.249 71.9268 354.552 72.3748L361.041 82.4689ZM366.609 74.5625V66.4531H354.609V74.5625H366.609ZM360.609 60.4531H356.016V72.4531H360.609V60.4531ZM356.016 60.4531C352.491 60.4531 348.727 61.2302 345.82 63.8399C342.79 66.5601 341.766 70.2884 341.766 73.8594H353.766C353.766 73.1667 353.864 72.8215 353.906 72.7077C353.935 72.6287 353.922 72.6928 353.836 72.7695C353.679 72.9105 354.04 72.4531 356.016 72.4531V60.4531ZM341.766 73.8594C341.766 76.8027 342.83 79.6142 345.12 81.7566L353.318 72.9934C353.429 73.0979 353.574 73.282 353.674 73.5245C353.77 73.7561 353.766 73.8963 353.766 73.8594H341.766ZM345.197 81.8276C347.432 83.8466 350.173 84.6875 352.922 84.6875V72.6875C352.757 72.6875 352.763 72.6642 352.876 72.7041C352.93 72.7234 352.996 72.7529 353.066 72.7946C353.136 72.8363 353.195 72.8812 353.24 72.9224L345.197 81.8276ZM414.422 42.6875L409.892 46.6216L420.422 58.7473V42.6875H414.422ZM414.422 17V11H408.422V17H414.422ZM430.266 17H436.266V11H430.266V17ZM430.266 89V95H436.266V89H430.266ZM416.062 89L410.126 89.87L410.878 95H416.062V89ZM415.266 83.5625L421.202 82.6925L419.14 68.619L410.499 79.9178L415.266 83.5625ZM399.047 64.25L393.048 64.1532L393.047 64.2016V64.25H399.047ZM414.422 73.3438L419.766 76.0724L420.422 74.787V73.3438H414.422ZM414.422 54.0312H420.422V52.668L419.833 51.4385L414.422 54.0312ZM399.094 61.3438L393.102 61.0346L393.096 61.1407L393.095 61.247L399.094 61.3438ZM389.25 63.2656C389.25 56.0382 390.815 51.1317 393.253 47.8813L383.653 40.6812C379.153 46.6808 377.25 54.4306 377.25 63.2656H389.25ZM393.253 47.8813C395.493 44.8951 398.488 43.3438 402.984 43.3438V31.3438C395.043 31.3438 388.351 34.4174 383.653 40.6812L393.253 47.8813ZM402.984 43.3438C405.697 43.3438 407.884 44.3095 409.892 46.6216L418.952 38.7534C414.772 33.9405 409.334 31.3438 402.984 31.3438V43.3438ZM420.422 42.6875V17H408.422V42.6875H420.422ZM414.422 23H430.266V11H414.422V23ZM424.266 17V89H436.266V17H424.266ZM430.266 83H416.062V95H430.266V83ZM421.999 88.13L421.202 82.6925L409.329 84.4325L410.126 89.87L421.999 88.13ZM410.499 79.9178C408.293 82.8038 405.875 83.9375 402.891 83.9375V95.9375C409.906 95.9375 415.739 92.8212 420.032 87.2072L410.499 79.9178ZM402.891 83.9375C398.65 83.9375 395.664 82.435 393.316 79.3589L383.778 86.6411C388.492 92.815 395.069 95.9375 402.891 95.9375V83.9375ZM393.316 79.3589C390.879 76.1674 389.25 71.0704 389.25 63.2656H377.25C377.25 72.5233 379.152 80.5826 383.778 86.6411L393.316 79.3589ZM393.047 64.25C393.047 69.1369 393.725 73.7843 395.833 77.3982C398.231 81.5091 402.183 83.75 406.922 83.75V71.75C406.487 71.75 406.397 71.6645 406.453 71.6968C406.512 71.7304 406.404 71.7043 406.198 71.3518C405.681 70.4657 405.047 68.3631 405.047 64.25H393.047ZM406.922 83.75C409.519 83.75 412.116 83.1995 414.461 81.8217C416.827 80.4319 418.569 78.4151 419.766 76.0724L409.078 70.6151C408.775 71.2099 408.517 71.3963 408.383 71.4752C408.228 71.5661 407.825 71.75 406.922 71.75V83.75ZM420.422 73.3438V54.0312H408.422V73.3438H420.422ZM419.833 51.4385C418.689 49.0519 416.981 46.9706 414.608 45.5286C412.253 44.098 409.631 43.5312 407.016 43.5312V55.5312C407.9 55.5312 408.262 55.7145 408.377 55.7839C408.472 55.8419 408.717 56.0106 409.011 56.624L419.833 51.4385ZM407.016 43.5312C402.646 43.5312 398.867 45.4569 396.396 49.1425C394.193 52.4267 393.328 56.6534 393.102 61.0346L405.086 61.6529C405.266 58.1591 405.924 56.4795 406.362 55.8263C406.532 55.5731 406.609 55.5599 406.563 55.5843C406.523 55.6052 406.621 55.5312 407.016 55.5312V43.5312ZM393.095 61.247L393.048 64.1532L405.046 64.3468L405.093 61.4405L393.095 61.247ZM444.891 83L440.719 87.3121L440.726 87.3191L440.733 87.3261L444.891 83ZM440.531 49.8125L435.139 47.1803L435.131 47.1975L435.123 47.2147L440.531 49.8125ZM448.969 40.625L451.997 45.8045L452.014 45.795L452.03 45.7853L448.969 40.625ZM478.969 44L474.574 48.0851L474.581 48.0928L474.589 48.1005L478.969 44ZM485.156 68.6094V74.6094H491.156V68.6094H485.156ZM453.75 68.6094V62.6094H446.447L447.864 69.7736L453.75 68.6094ZM476.578 72.5L481.158 68.6243L476.459 63.07L471.901 68.7417L476.578 72.5ZM483.797 81.0312L488.657 84.5503L491.413 80.7435L488.377 77.1556L483.797 81.0312ZM475.406 87.5469L477.839 93.0317L477.85 93.0268L477.861 93.0219L475.406 87.5469ZM453.75 58.7188L447.81 57.8702L446.832 64.7188H453.75V58.7188ZM469.688 58.7188V64.7188H475.688V58.7188H469.688ZM469.688 57.5L463.689 57.3519L463.688 57.4259V57.5H469.688ZM467.766 51.6406L463.428 55.7858L463.451 55.8101L463.475 55.8342L467.766 51.6406ZM463.781 83.9375C457.274 83.9375 452.559 82.0478 449.048 78.6739L440.733 87.3261C446.847 93.2022 454.726 95.9375 463.781 95.9375V83.9375ZM449.063 78.6879C445.554 75.2928 443.672 70.8694 443.672 64.8594H431.672C431.672 73.7243 434.603 81.3947 440.719 87.3121L449.063 78.6879ZM443.672 64.8594V63.5469H431.672V64.8594H443.672ZM443.672 63.5469C443.672 59.0996 444.486 55.4362 445.94 52.4103L435.123 47.2147C432.764 52.1263 431.672 57.6192 431.672 63.5469H443.672ZM445.923 52.4447C447.36 49.5014 449.368 47.3422 451.997 45.8045L445.94 35.4455C441.195 38.2203 437.578 42.1861 435.139 47.1803L445.923 52.4447ZM452.03 45.7853C454.635 44.2397 457.912 43.3438 462.094 43.3438V31.3438C456.15 31.3438 450.677 32.6353 445.908 35.4647L452.03 45.7853ZM462.094 43.3438C467.871 43.3438 471.785 45.0848 474.574 48.0851L483.363 39.9149C477.902 34.0402 470.566 31.3438 462.094 31.3438V43.3438ZM474.589 48.1005C477.383 51.085 479.156 55.5996 479.156 62.4688H491.156C491.156 53.5254 488.805 45.7275 483.349 39.8995L474.589 48.1005ZM479.156 62.4688V68.6094H491.156V62.4688H479.156ZM485.156 62.6094H453.75V74.6094H485.156V62.6094ZM447.864 69.7736C448.646 73.7252 450.468 77.2424 453.561 79.8786L461.346 70.7464C460.626 70.1326 459.979 69.1811 459.636 67.4451L447.864 69.7736ZM453.561 79.8786C456.769 82.6135 460.714 83.75 464.859 83.75V71.75C462.942 71.75 461.95 71.2615 461.346 70.7464L453.561 79.8786ZM464.859 83.75C471.443 83.75 477.165 81.3489 481.255 76.2583L471.901 68.7417C470.367 70.6511 468.276 71.75 464.859 71.75V83.75ZM471.998 76.3757L479.217 84.9069L488.377 77.1556L481.158 68.6243L471.998 76.3757ZM478.937 77.5122C477.69 79.2351 475.795 80.7975 472.952 82.0718L477.861 93.0219C482.268 91.0462 485.967 88.2649 488.657 84.5503L478.937 77.5122ZM472.974 82.062C470.189 83.2969 467.148 83.9375 463.781 83.9375V95.9375C468.727 95.9375 473.436 94.9844 477.839 93.0317L472.974 82.062ZM462 43.5312C458.218 43.5312 454.665 44.8565 452.004 47.8194C449.529 50.5758 448.337 54.1866 447.81 57.8702L459.69 59.5673C460.038 57.1259 460.658 56.143 460.933 55.8369C461.042 55.7158 461.114 55.6756 461.184 55.6467C461.27 55.6108 461.51 55.5312 462 55.5312V43.5312ZM453.75 64.7188H469.688V52.7188H453.75V64.7188ZM475.688 58.7188V57.5H463.688V58.7188H475.688ZM475.686 57.6481C475.775 54.0331 474.858 50.3132 472.057 47.447L463.475 55.8342C463.477 55.837 463.48 55.8401 463.488 55.853C463.497 55.8672 463.522 55.9128 463.553 56.0067C463.617 56.2014 463.707 56.618 463.689 57.3519L475.686 57.6481ZM472.104 47.4955C469.327 44.5901 465.646 43.5312 462 43.5312V55.5312C462.697 55.5312 463.083 55.6303 463.255 55.6933C463.399 55.7461 463.424 55.7816 463.428 55.7858L472.104 47.4955ZM498.234 65.5625L495.299 70.7954L495.323 70.809L495.348 70.8225L498.234 65.5625ZM496.125 41.8906L499.817 46.6205L499.829 46.6112L499.84 46.6019L496.125 41.8906ZM533.438 53.8438V59.8438H539.438V53.8438H533.438ZM517.594 53.8438H511.594V59.8438H517.594V53.8438ZM507 49.1562L510.764 53.8288L510.803 53.7975L510.841 53.7656L507 49.1562ZM513.938 58.1562L512.832 64.0535L512.843 64.0555L513.938 58.1562ZM521.906 60.1719L523.859 54.4986L523.85 54.4955L521.906 60.1719ZM527.156 85.5781L523.701 80.6732L523.692 80.6794L523.683 80.6857L527.156 85.5781ZM488.766 72.7344V66.7344H482.766V72.7344H488.766ZM503.531 72.7344L509.529 72.5744L509.373 66.7344H503.531V72.7344ZM505.875 77.8906L502.34 82.7387L502.373 82.763L502.407 82.7868L505.875 77.8906ZM516.469 78.1719L512.721 73.4867L512.687 73.5132L512.655 73.5403L516.469 78.1719ZM524.109 74.75C524.109 70.7843 521.807 67.9416 519.002 66.3204L512.998 76.7108C513.094 76.766 512.837 76.6408 512.556 76.2112C512.243 75.7311 512.109 75.1881 512.109 74.75H524.109ZM519.002 66.3204C516.705 64.9935 513.194 63.9958 509.286 63.1273L506.683 74.8415C510.65 75.723 512.482 76.4127 512.998 76.7108L519.002 66.3204ZM509.286 63.1273C505.709 62.3323 503.038 61.3544 501.121 60.3025L495.348 70.8225C498.556 72.5831 502.385 73.8865 506.683 74.8415L509.286 63.1273ZM501.17 60.3296C499.27 59.2638 498.098 58.1358 497.379 57.049L487.371 63.6698C489.339 66.6455 492.074 68.9862 495.299 70.7954L501.17 60.3296ZM497.379 57.049C496.736 56.0766 496.359 54.9186 496.359 53.375H484.359C484.359 57.0814 485.327 60.5796 487.371 63.6698L497.379 57.049ZM496.359 53.375C496.359 50.6657 497.35 48.5458 499.817 46.6205L492.433 37.1607C487.213 41.2354 484.359 46.7718 484.359 53.375H496.359ZM499.84 46.6019C502.368 44.6089 505.978 43.3438 511.219 43.3438V31.3438C504.022 31.3438 497.57 33.1098 492.41 37.1794L499.84 46.6019ZM511.219 43.3438C517.024 43.3438 521.017 44.6559 523.756 46.6995L530.932 37.0818C525.546 33.0628 518.788 31.3438 511.219 31.3438V43.3438ZM523.756 46.6995C526.348 48.6337 527.438 50.8585 527.438 53.8438H539.438C539.438 46.954 536.465 41.2101 530.932 37.0818L523.756 46.6995ZM533.438 47.8438H517.594V59.8438H533.438V47.8438ZM523.594 53.8438C523.594 50.805 522.778 47.4445 520.118 44.9211C517.518 42.4535 514.161 41.75 511.172 41.75V53.75C511.786 53.75 512.088 53.8251 512.172 53.8515C512.207 53.8627 512.182 53.8583 512.117 53.8211C512.049 53.7825 511.957 53.7191 511.858 53.6258C511.759 53.5321 511.679 53.4314 511.619 53.337C511.561 53.2445 511.537 53.1807 511.531 53.1663C511.525 53.1484 511.594 53.3383 511.594 53.8438H523.594ZM511.172 41.75C508.307 41.75 505.503 42.5934 503.159 44.5469L510.841 53.7656C510.843 53.7644 510.835 53.7705 510.821 53.7783C510.807 53.7861 510.799 53.7886 510.803 53.7872C510.807 53.7859 510.913 53.75 511.172 53.75V41.75ZM503.236 44.4837C500.78 46.4624 499.312 49.284 499.312 52.5781H511.312C511.312 52.7348 511.274 53.0244 511.116 53.3452C510.962 53.6573 510.788 53.809 510.764 53.8288L503.236 44.4837ZM499.312 52.5781C499.312 56.3908 501.37 59.2908 504.154 61.062L510.596 50.938C510.519 50.8889 510.737 51.009 510.967 51.391C511.219 51.8086 511.312 52.2533 511.312 52.5781H499.312ZM504.154 61.062C506.516 62.565 509.62 63.4512 512.832 64.0535L515.043 52.259C512.255 51.7363 510.984 51.185 510.596 50.938L504.154 61.062ZM512.843 64.0555C515.661 64.5785 518.022 65.1838 519.962 65.8482L523.85 54.4955C521.228 53.5974 518.277 52.859 515.032 52.257L512.843 64.0555ZM519.953 65.8451C523.047 66.9102 524.823 68.2121 525.823 69.4463C526.759 70.6006 527.344 72.0912 527.344 74.2812H539.344C539.344 69.6901 538.022 65.4385 535.145 61.8897C532.333 58.4207 528.391 56.0586 523.859 54.4986L519.953 65.8451ZM527.344 74.2812C527.344 76.7558 526.4 78.7712 523.701 80.6732L530.612 90.483C536.162 86.5726 539.344 81.0567 539.344 74.2812H527.344ZM523.683 80.6857C520.871 82.6821 516.878 83.9375 511.219 83.9375V95.9375C518.622 95.9375 525.254 94.2866 530.63 90.4706L523.683 80.6857ZM511.219 83.9375C507.602 83.9375 504.601 83.2897 502.095 82.1402L497.092 93.0473C501.399 95.0228 506.148 95.9375 511.219 95.9375V83.9375ZM502.095 82.1402C499.513 80.9555 497.736 79.463 496.519 77.7475L486.731 84.69C489.327 88.3495 492.862 91.107 497.092 93.0473L502.095 82.1402ZM496.519 77.7475C495.25 75.9579 494.766 74.3237 494.766 72.7344H482.766C482.766 77.0826 484.188 81.1046 486.731 84.69L496.519 77.7475ZM488.766 78.7344H503.531V66.7344H488.766V78.7344ZM497.533 72.8943C497.631 76.5601 498.949 80.2664 502.34 82.7387L509.41 73.0426C509.444 73.0673 509.494 73.1116 509.545 73.1735C509.594 73.2349 509.619 73.2833 509.626 73.2984C509.638 73.3234 509.544 73.132 509.529 72.5744L497.533 72.8943ZM502.407 82.7868C505.168 84.7427 508.397 85.4844 511.641 85.4844V73.4844C510.197 73.4844 509.582 73.1635 509.343 72.9945L502.407 82.7868ZM511.641 85.4844C514.444 85.4844 517.685 84.9427 520.283 82.8035L512.655 73.5403C512.903 73.3355 513.045 73.3244 512.891 73.3664C512.724 73.4119 512.334 73.4844 511.641 73.4844V85.4844ZM520.217 82.8571C522.741 80.8382 524.109 77.9705 524.109 74.75H512.109C512.109 74.6565 512.133 74.3921 512.289 74.0662C512.446 73.7395 512.64 73.5514 512.721 73.4867L520.217 82.8571Z" fill="#C8C8C8"/>
</g>
<defs>
<filter id="filter0_d_56_2" x="29.0625" y="17" width="504.375" height="92.9375" filterUnits="userSpaceOnUse" color-interpolation-filters="sRGB">
<feFlood flood-opacity="0" result="BackgroundImageFix"/>
<feColorMatrix in="SourceAlpha" type="matrix" values="0 0 0 0 0 0 0 0 0 0 0 0 0 0 0 0 0 0 127 0" result="hardAlpha"/>
<feOffset dy="20"/>
<feComposite in2="hardAlpha" operator="out"/>
<feColorMatrix type="matrix" values="0 0 0 0 0.784314 0 0 0 0 0.784314 0 0 0 0 0.784314 0 0 0 1 0"/>
<feBlend mode="normal" in2="BackgroundImageFix" result="effect1_dropShadow_56_2"/>
<feBlend mode="normal" in="SourceGraphic" in2="effect1_dropShadow_56_2" result="shape"/>
</filter>
</defs>
</svg>
