<svg width="150" height="160" viewBox="0 0 150 160" fill="none" xmlns="http://www.w3.org/2000/svg">
<g filter="url(#filter0_d_24_44)">
<rect width="150" height="150" rx="15" fill="#767676"/>
<rect x="4" y="4" width="142" height="142" rx="11" stroke="#BABABA" stroke-width="8"/>
</g>
<g clip-path="url(#clip0_24_44)">
<path d="M91.6387 86.057L79.6855 96.0869L98.3171 118.291L110.27 108.261L91.6387 86.057Z" fill="#212121"/>
<path d="M112.906 42.5118L101.872 31.4783L81.3762 51.9741L92.4097 63.0076L112.906 42.5118Z" fill="#212121"/>
<path d="M69.203 102.783C84.571 102.783 97.0291 90.9733 97.0291 76.4058C97.0291 61.8383 84.571 50.029 69.203 50.029C53.8351 50.029 41.377 61.8383 41.377 76.4058C41.377 90.9733 53.8351 102.783 69.203 102.783Z" fill="#212121"/>
<path d="M42.8257 76.9855H35.8691V72.6377L37.0286 67.1304L39.6373 60.7536L44.5648 54.087L50.6517 49.1594L56.4489 45.6812L62.5358 44.2319L70.3619 43.3623L76.4488 44.2319L83.1155 47.1304L86.0141 44.2319L86.5938 42.7826V39.3043L87.4633 37.2754L88.9126 34.3768L92.101 31.7681L96.4488 29.4493L99.9271 28.8696L104.565 29.4493L109.492 31.7681L113.55 37.2754L114.42 41.913V48.2899L111.811 52.9275L105.724 56.9855L99.9271 58.1449L97.0286 61.0435C97.7051 62.7826 98.8257 65.4493 100.217 71.4783C101.608 77.5072 98.6709 87.7101 96.7387 90.8986L99.6373 94.087L102.246 94.3768C103.405 94.3768 106.536 95.0145 109.782 97.5652C113.029 100.116 114.033 103.072 114.13 104.232C114.227 105.971 114.362 110.087 114.13 112.638C113.898 115.188 110.362 118.532 108.623 119.884C106.787 120.947 102.014 122.957 95.2894 121.333C88.5648 119.71 86.6904 111.478 86.8836 107.71L83.1155 104.522C78.7677 106.358 67.9851 109.391 58.4778 106.841C48.9706 104.29 41.2797 94.3768 38.7677 89.7391L36.4489 82.7826L35.8691 77.2754H42.8257L44.5648 83.3623L47.1735 88.5797L51.2315 94.087L56.159 97.5652L62.8257 100.464L68.0431 101.043H71.8112L77.3184 99.8841L83.9851 95.8261L94.13 105.971L93.5503 107.71V110.029L94.7097 112.638L96.7387 114.087L99.3474 114.667L102.246 114.377L104.565 113.507L106.304 111.768L106.884 108.87V105.971L105.724 103.362L103.695 101.623L101.087 101.043L97.6083 101.623L88.6228 91.4783C90.3619 89.2562 93.8981 83.5362 94.13 78.4348C94.3619 73.3333 92.874 68.7729 92.101 67.1304L90.072 62.7826L88.3329 59.5942L97.0286 50.6087H98.188H100.797H102.826L103.985 50.029L105.724 48.8696L107.173 47.1304L107.753 44.8116V41.913L107.173 39.8841L105.724 37.8551L103.985 36.4058L101.956 36.1159L99.0575 36.4058L96.7387 37.5652L94.7097 39.3043L93.2604 41.913V44.2319L94.13 46.5507L84.5648 55.8261L83.9851 55.5362L79.6373 52.9275L74.13 50.8986L69.4923 50.3188L62.5358 50.8986L56.4489 52.9275L51.8112 56.1159L47.1735 61.6232L44.2749 66.8406L42.8257 71.4783V76.9855Z" fill="#474747" stroke="#474747"/>
<path d="M76.7393 80.1739C78.8649 82.2995 83.348 86.8406 84.2755 88L85.7248 86.2609L87.174 82.7826L88.3335 77.8551V73.5072L87.174 68L84.2755 63.942L76.7393 71.7681L77.6088 74.0869L77.8987 76.1159L77.6088 77.8551L76.7393 80.1739Z" fill="#474747" stroke="#474747"/>
<path d="M73.2605 84.8116L79.9272 91.4783L80.5069 92.058L77.6084 93.7971L74.1301 95.2464L68.6229 96.116L61.3765 95.2464L54.7098 91.4783L50.6518 85.6812L48.333 80.4638V73.2174L48.9127 69.4493L51.5214 64.8116L54.7098 61.0435L59.3475 57.8551L63.4055 56.116L67.4634 55.5363H71.5214L75.8692 56.9855L80.5069 59.8841L72.6808 67.1305L70.6518 66.5507L68.0432 65.971L65.4345 66.5507L62.2461 68L59.9272 71.4783L58.7678 75.2464L59.3475 79.0145L61.3765 82.2029L64.8547 84.8116L69.2026 85.6812L73.2605 84.8116Z" fill="#474747" stroke="#474747"/>
</g>
<defs>
<filter id="filter0_d_24_44" x="0" y="0" width="150" height="160" filterUnits="userSpaceOnUse" color-interpolation-filters="sRGB">
<feFlood flood-opacity="0" result="BackgroundImageFix"/>
<feColorMatrix in="SourceAlpha" type="matrix" values="0 0 0 0 0 0 0 0 0 0 0 0 0 0 0 0 0 0 127 0" result="hardAlpha"/>
<feOffset dy="10"/>
<feComposite in2="hardAlpha" operator="out"/>
<feColorMatrix type="matrix" values="0 0 0 0 0.729412 0 0 0 0 0.729412 0 0 0 0 0.729412 0 0 0 1 0"/>
<feBlend mode="normal" in2="BackgroundImageFix" result="effect1_dropShadow_24_44"/>
<feBlend mode="normal" in="SourceGraphic" in2="effect1_dropShadow_24_44" result="shape"/>
</filter>
<clipPath id="clip0_24_44">
<rect width="80" height="94.4928" fill="white" transform="translate(35 28)"/>
</clipPath>
</defs>
</svg>
