<svg width="150" height="160" viewBox="0 0 150 160" fill="none" xmlns="http://www.w3.org/2000/svg">
<g filter="url(#filter0_d_24_40)">
<rect width="150" height="150" rx="15" fill="#767676"/>
<rect x="4" y="4" width="142" height="142" rx="11" stroke="#BABABA" stroke-width="8"/>
</g>
<g clip-path="url(#clip0_24_40)">
<path d="M74.8056 93.1945V109.139L61 93.1945H74.8056Z" fill="#212121" stroke="#212121"/>
<path d="M92.5 92.6111C102.165 92.6111 110 84.8632 110 75.3056C110 65.748 102.165 58 92.5 58C82.835 58 75 65.748 75 75.3056C75 84.8632 82.835 92.6111 92.5 92.6111Z" fill="#474747"/>
<path d="M90.75 58C101.381 58 110 50.165 110 40.5C110 30.835 101.381 23 90.75 23C80.1185 23 71.5 30.835 71.5 40.5C71.5 50.165 80.1185 58 90.75 58Z" fill="#474747"/>
<path d="M59.4444 58.3889C70.1833 58.3889 78.8889 50.4668 78.8889 40.6944C78.8889 30.9221 70.1833 23 59.4444 23C48.7056 23 40 30.9221 40 40.6944C40 50.4668 48.7056 58.3889 59.4444 58.3889Z" fill="#212121"/>
<path d="M57.5 93C67.165 93 75 85.0779 75 75.3055C75 65.5332 67.165 57.6111 57.5 57.6111C47.835 57.6111 40 65.5332 40 75.3055C40 85.0779 47.835 93 57.5 93Z" fill="#212121"/>
<path d="M57.5 127.222C67.165 127.222 75 119.387 75 109.722C75 100.057 67.165 92.2222 57.5 92.2222C47.835 92.2222 40 100.057 40 109.722C40 119.387 47.835 127.222 57.5 127.222Z" fill="#212121"/>
<path d="M75 57.6111H61V93H75V57.6111Z" fill="#212121"/>
<path d="M89 23H75V58.3889H89V23Z" fill="#474747"/>
<path d="M75 23H61V58.3889H75V23Z" fill="#212121"/>
<path d="M92.1111 57.2222H89V58.7778H92.1111V57.2222Z" fill="#474747"/>
</g>
<defs>
<filter id="filter0_d_24_40" x="0" y="0" width="150" height="160" filterUnits="userSpaceOnUse" color-interpolation-filters="sRGB">
<feFlood flood-opacity="0" result="BackgroundImageFix"/>
<feColorMatrix in="SourceAlpha" type="matrix" values="0 0 0 0 0 0 0 0 0 0 0 0 0 0 0 0 0 0 127 0" result="hardAlpha"/>
<feOffset dy="10"/>
<feComposite in2="hardAlpha" operator="out"/>
<feColorMatrix type="matrix" values="0 0 0 0 0.729412 0 0 0 0 0.729412 0 0 0 0 0.729412 0 0 0 1 0"/>
<feBlend mode="normal" in2="BackgroundImageFix" result="effect1_dropShadow_24_40"/>
<feBlend mode="normal" in="SourceGraphic" in2="effect1_dropShadow_24_40" result="shape"/>
</filter>
<clipPath id="clip0_24_40">
<rect width="70" height="104.222" fill="white" transform="translate(40 23)"/>
</clipPath>
</defs>
</svg>
