<svg width="80" height="90" viewBox="0 0 80 90" fill="none" xmlns="http://www.w3.org/2000/svg">
<g filter="url(#filter0_d_83_3)">
<circle cx="40" cy="40" r="40" fill="#212121"/>
<circle cx="40" cy="40" r="38.5" stroke="#888888" stroke-width="3"/>
</g>
<path d="M50.6438 62.0922C50.2803 62.1571 49.9735 62.1504 49.7175 62.0922H33.1277C32.8708 62.1504 32.5618 62.1571 32.1941 62.0922H33.1277C33.9109 61.9147 34.209 61.2579 34.209 60.6905C34.209 59.9722 34.174 56.0124 34.174 53.577C34.174 53.577 26.0442 55.3291 24.3446 50.1253C24.3446 50.1253 23.013 46.7613 21.1208 45.8852C21.1208 45.8852 18.4751 44.0631 21.3135 44.0981C21.3135 44.0981 24.187 44.3259 25.7814 47.0942C28.3219 51.5796 32.5795 50.283 34.244 49.5296C34.5069 47.6724 35.2603 46.3758 36.1013 45.6224C29.6185 44.9041 23.0831 43.9579 23.0831 32.8145C23.0831 29.6257 23.9592 28.0313 25.8164 25.9813C25.501 25.2104 24.5199 22.1092 26.1143 18.0968C28.5497 17.3434 34.1214 21.2331 34.1214 21.2331C36.4342 20.5848 38.9397 20.2519 41.4102 20.2519C43.8806 20.2519 46.3861 20.5848 48.6989 21.2331C48.6989 21.2331 54.2706 17.3434 56.706 18.0968C58.3005 22.1267 57.3018 25.2279 57.0039 25.9813C58.8611 28.0313 60 29.6257 60 32.8145C60 44.0105 53.1668 44.9041 46.684 45.6224C47.7528 46.5335 48.6639 48.2681 48.6639 51.0014C48.6639 54.9086 48.6288 59.7444 48.6288 60.6905C48.6288 61.2579 48.9369 61.9147 49.7175 62.0922H50.6438Z" fill="#888888"/>
<defs>
<filter id="filter0_d_83_3" x="0" y="0" width="80" height="90" filterUnits="userSpaceOnUse" color-interpolation-filters="sRGB">
<feFlood flood-opacity="0" result="BackgroundImageFix"/>
<feColorMatrix in="SourceAlpha" type="matrix" values="0 0 0 0 0 0 0 0 0 0 0 0 0 0 0 0 0 0 127 0" result="hardAlpha"/>
<feOffset dy="10"/>
<feComposite in2="hardAlpha" operator="out"/>
<feColorMatrix type="matrix" values="0 0 0 0 0.533333 0 0 0 0 0.533333 0 0 0 0 0.533333 0 0 0 1 0"/>
<feBlend mode="normal" in2="BackgroundImageFix" result="effect1_dropShadow_83_3"/>
<feBlend mode="normal" in="SourceGraphic" in2="effect1_dropShadow_83_3" result="shape"/>
</filter>
</defs>
</svg>
