<svg width="150" height="160" viewBox="0 0 150 160" fill="none" xmlns="http://www.w3.org/2000/svg">
<g filter="url(#filter0_d_13_70)">
<rect width="150" height="150" rx="15" fill="#767676"/>
<rect x="4" y="4" width="142" height="142" rx="11" stroke="#BABABA" stroke-width="8"/>
</g>
<path d="M39.9296 86.6197H55.9859L57.1127 99.1549L75.1408 103.944L92.8873 99.1549L94.5775 78.7324H75L39.2254 78.3099L35 30H74.8288L115 30.4225L113.451 46.1972H74.8288H52.4648L54.0141 62.3944H75.1408L111.901 62.9577L107.817 111.69L74.8592 120.845L42.1831 111.549L39.9296 86.6197Z" fill="#212121" stroke="#212121"/>
<path d="M75 104L74.5 120.5L41.5 111.5L39 86H56.5L57.5 99L75 104Z" fill="#474747" stroke="#474747"/>
<path d="M39 78.5H74.5V62.5H54L52 46H74.5V30H35L39 78.5Z" fill="#474747" stroke="#474747"/>
<defs>
<filter id="filter0_d_13_70" x="0" y="0" width="150" height="160" filterUnits="userSpaceOnUse" color-interpolation-filters="sRGB">
<feFlood flood-opacity="0" result="BackgroundImageFix"/>
<feColorMatrix in="SourceAlpha" type="matrix" values="0 0 0 0 0 0 0 0 0 0 0 0 0 0 0 0 0 0 127 0" result="hardAlpha"/>
<feOffset dy="10"/>
<feComposite in2="hardAlpha" operator="out"/>
<feColorMatrix type="matrix" values="0 0 0 0 0.729412 0 0 0 0 0.729412 0 0 0 0 0.729412 0 0 0 1 0"/>
<feBlend mode="normal" in2="BackgroundImageFix" result="effect1_dropShadow_13_70"/>
<feBlend mode="normal" in="SourceGraphic" in2="effect1_dropShadow_13_70" result="shape"/>
</filter>
</defs>
</svg>
