<svg width="80" height="90" viewBox="0 0 80 90" fill="none" xmlns="http://www.w3.org/2000/svg">
<g filter="url(#filter0_d_83_4)">
<circle cx="40" cy="40" r="40" fill="#212121"/>
<circle cx="40" cy="40" r="38.5" stroke="#888888" stroke-width="3"/>
</g>
<rect x="18" y="18" width="44" height="44" rx="10" fill="#888888"/>
<path d="M40.5037 31.7956C35.8215 31.7956 32.0448 35.4587 32.0448 40C32.0448 44.5413 35.8215 48.2044 40.5037 48.2044C45.1859 48.2044 48.9626 44.5413 48.9626 40C48.9626 35.4587 45.1859 31.7956 40.5037 31.7956ZM40.5037 45.3339C37.4779 45.3339 35.0043 42.9419 35.0043 40C35.0043 37.0581 37.4706 34.6661 40.5037 34.6661C43.5368 34.6661 46.0031 37.0581 46.0031 40C46.0031 42.9419 43.5294 45.3339 40.5037 45.3339V45.3339ZM51.2816 31.46C51.2816 32.5239 50.3982 33.3736 49.3086 33.3736C48.2117 33.3736 47.3356 32.5168 47.3356 31.46C47.3356 30.4032 48.219 29.5464 49.3086 29.5464C50.3982 29.5464 51.2816 30.4032 51.2816 31.46ZM56.8841 33.4022C56.7589 30.8388 56.1552 28.5681 54.219 26.6973C52.2902 24.8265 49.9491 24.241 47.3061 24.1125C44.5822 23.9625 36.4178 23.9625 33.6939 24.1125C31.0583 24.2339 28.7172 24.8194 26.781 26.6902C24.8448 28.561 24.2485 30.8316 24.116 33.3951C23.9613 36.037 23.9613 43.9558 24.116 46.5978C24.2411 49.1612 24.8448 51.4319 26.781 53.3027C28.7172 55.1735 31.0509 55.759 33.6939 55.8875C36.4178 56.0375 44.5822 56.0375 47.3061 55.8875C49.9491 55.7661 52.2902 55.1806 54.219 53.3027C56.1479 51.4319 56.7515 49.1612 56.8841 46.5978C57.0387 43.9558 57.0387 36.0442 56.8841 33.4022V33.4022ZM53.365 49.4326C52.7908 50.8321 51.6791 51.9103 50.2288 52.4744C48.0571 53.3098 42.9037 53.117 40.5037 53.117C38.1037 53.117 32.9429 53.3027 30.7785 52.4744C29.3356 51.9174 28.2239 50.8392 27.6423 49.4326C26.781 47.3261 26.9798 42.3278 26.9798 40C26.9798 37.6722 26.7883 32.6667 27.6423 30.5674C28.2166 29.1679 29.3282 28.0897 30.7785 27.5256C32.9503 26.6902 38.1037 26.883 40.5037 26.883C42.9037 26.883 48.0644 26.6973 50.2288 27.5256C51.6718 28.0826 52.7834 29.1608 53.365 30.5674C54.2264 32.6739 54.0276 37.6722 54.0276 40C54.0276 42.3278 54.2264 47.3333 53.365 49.4326Z" fill="#212121"/>
<defs>
<filter id="filter0_d_83_4" x="0" y="0" width="80" height="90" filterUnits="userSpaceOnUse" color-interpolation-filters="sRGB">
<feFlood flood-opacity="0" result="BackgroundImageFix"/>
<feColorMatrix in="SourceAlpha" type="matrix" values="0 0 0 0 0 0 0 0 0 0 0 0 0 0 0 0 0 0 127 0" result="hardAlpha"/>
<feOffset dy="10"/>
<feComposite in2="hardAlpha" operator="out"/>
<feColorMatrix type="matrix" values="0 0 0 0 0.533333 0 0 0 0 0.533333 0 0 0 0 0.533333 0 0 0 1 0"/>
<feBlend mode="normal" in2="BackgroundImageFix" result="effect1_dropShadow_83_4"/>
<feBlend mode="normal" in="SourceGraphic" in2="effect1_dropShadow_83_4" result="shape"/>
</filter>
</defs>
</svg>
