<svg width="80" height="90" viewBox="0 0 80 90" fill="none" xmlns="http://www.w3.org/2000/svg">
<g filter="url(#filter0_d_83_2)">
<circle cx="40" cy="40" r="40" fill="#212121"/>
<circle cx="40" cy="40" r="38.5" stroke="#888888" stroke-width="3"/>
</g>
<path d="M29.9766 56H24.2812V30.6406H29.9766V56ZM23.9297 24.0547C23.9297 23.1797 24.2031 22.4531 24.75 21.875C25.3125 21.2969 26.1094 21.0078 27.1406 21.0078C28.1719 21.0078 28.9688 21.2969 29.5312 21.875C30.0938 22.4531 30.375 23.1797 30.375 24.0547C30.375 24.9141 30.0938 25.6328 29.5312 26.2109C28.9688 26.7734 28.1719 27.0547 27.1406 27.0547C26.1094 27.0547 25.3125 26.7734 24.75 26.2109C24.2031 25.6328 23.9297 24.9141 23.9297 24.0547ZM41.4844 30.6406L41.6484 33.5703C43.5234 31.3047 45.9844 30.1719 49.0312 30.1719C54.3125 30.1719 57 33.1953 57.0938 39.2422V56H51.3984V39.5703C51.3984 37.9609 51.0469 36.7734 50.3438 36.0078C49.6562 35.2266 48.5234 34.8359 46.9453 34.8359C44.6484 34.8359 42.9375 35.875 41.8125 37.9531V56H36.1172V30.6406H41.4844Z" fill="#888888"/>
<defs>
<filter id="filter0_d_83_2" x="0" y="0" width="80" height="90" filterUnits="userSpaceOnUse" color-interpolation-filters="sRGB">
<feFlood flood-opacity="0" result="BackgroundImageFix"/>
<feColorMatrix in="SourceAlpha" type="matrix" values="0 0 0 0 0 0 0 0 0 0 0 0 0 0 0 0 0 0 127 0" result="hardAlpha"/>
<feOffset dy="10"/>
<feComposite in2="hardAlpha" operator="out"/>
<feColorMatrix type="matrix" values="0 0 0 0 0.533333 0 0 0 0 0.533333 0 0 0 0 0.533333 0 0 0 1 0"/>
<feBlend mode="normal" in2="BackgroundImageFix" result="effect1_dropShadow_83_2"/>
<feBlend mode="normal" in="SourceGraphic" in2="effect1_dropShadow_83_2" result="shape"/>
</filter>
</defs>
</svg>
