<svg width="108" height="63" viewBox="0 0 108 63" fill="none" xmlns="http://www.w3.org/2000/svg">
<g clip-path="url(#clip0_2_2)">
<path fill-rule="evenodd" clip-rule="evenodd" d="M24.7686 62.808L82.9095 4.825L78.0716 0L19.9338 57.982L24.7686 62.808ZM20.8372 47.4749L15.1651 53.1319L4.68929 42.684L4.67211 42.7012L4.31903 42.349L1.35743 39.3953L-1 37.045L14.5975 21.489L20.2697 27.146L13.7184 33.679L10.3614 37.027L20.8372 47.4749ZM54.8819 38.707H54.8832H55.0032L54.8819 38.586L64.7371 28.757L70.4092 34.414L70.3932 34.43L82.4733 46.478L77.0499 51.887L64.9697 39.839L61.9005 42.9001V59.207H61.8992H61.3992H55.3832H54.8832H54.8819V38.707ZM79.9887 14.075L85.6608 8.41797L108.348 31.043L108 31.3901V31.5239L109 32.5238L89.5239 52L84 46.4762L98.2199 32.2561L79.9887 14.075Z" fill="white"/>
</g>
<defs>
<clipPath id="clip0_2_2">
<rect width="108" height="63" fill="white"/>
</clipPath>
</defs>
</svg>
