<svg width="150" height="160" viewBox="0 0 150 160" fill="none" xmlns="http://www.w3.org/2000/svg">
<g filter="url(#filter0_d_14_167)">
<rect width="150" height="150" rx="15" fill="#767676"/>
<rect x="4" y="4" width="142" height="142" rx="11" stroke="#BABABA" stroke-width="8"/>
</g>
<g clip-path="url(#clip0_14_167)">
<path d="M36.8899 99.0194L72.7976 119.403H75.6324L113.115 97.4512L114.375 94.6287V53.2341L113.115 51.0389L75.6324 30.028H72.7976L36.8899 51.0389L35 53.5477V96.8237L36.8899 99.0194Z" fill="url(#paint0_linear_14_167)"/>
<path d="M52.1875 80.0279L35 96.5906V54.0904L36.5625 52.2154L52.1875 80.0279Z" fill="#515151" stroke="#515151"/>
<path d="M71.875 119.091H75L52.1875 79.403L35 97.2156L36.875 99.4031L71.875 119.091Z" fill="#212121" stroke="#212121"/>
<path d="M96.2544 70.9245L113.75 54.3322L113.748 95.0281L112.498 97.5281L96.2544 70.9245Z" fill="#353535" stroke="#353535"/>
<path d="M75.3125 30.6529H72.5L96.25 71.2779L113.438 53.4654L112.5 51.5904L75.3125 30.6529Z" fill="#515151" stroke="#515151"/>
</g>
<defs>
<filter id="filter0_d_14_167" x="0" y="0" width="150" height="160" filterUnits="userSpaceOnUse" color-interpolation-filters="sRGB">
<feFlood flood-opacity="0" result="BackgroundImageFix"/>
<feColorMatrix in="SourceAlpha" type="matrix" values="0 0 0 0 0 0 0 0 0 0 0 0 0 0 0 0 0 0 127 0" result="hardAlpha"/>
<feOffset dy="10"/>
<feComposite in2="hardAlpha" operator="out"/>
<feColorMatrix type="matrix" values="0 0 0 0 0.729412 0 0 0 0 0.729412 0 0 0 0 0.729412 0 0 0 1 0"/>
<feBlend mode="normal" in2="BackgroundImageFix" result="effect1_dropShadow_14_167"/>
<feBlend mode="normal" in="SourceGraphic" in2="effect1_dropShadow_14_167" result="shape"/>
</filter>
<linearGradient id="paint0_linear_14_167" x1="36.875" y1="51.9029" x2="112.187" y2="98.1531" gradientUnits="userSpaceOnUse">
<stop stop-color="#747474"/>
<stop offset="1" stop-color="#3F3F3F"/>
</linearGradient>
<clipPath id="clip0_14_167">
<rect width="80" height="90" fill="white" transform="translate(35 30)"/>
</clipPath>
</defs>
</svg>
