<svg width="150" height="160" viewBox="0 0 150 160" fill="none" xmlns="http://www.w3.org/2000/svg">
<g filter="url(#filter0_d_24_39)">
<rect width="150" height="150" rx="15" fill="#767676"/>
<rect x="4" y="4" width="142" height="142" rx="11" stroke="#BABABA" stroke-width="8"/>
</g>
<path d="M47.0977 80.9805V100H38.2031V48.8125H57.7852C63.5039 48.8125 68.0391 50.3008 71.3906 53.2773C74.7656 56.2539 76.4531 60.1914 76.4531 65.0898C76.4531 70.1055 74.8008 74.0078 71.4961 76.7969C68.2148 79.5859 63.6094 80.9805 57.6797 80.9805H47.0977ZM47.0977 73.8438H57.7852C60.9492 73.8438 63.3633 73.1055 65.0273 71.6289C66.6914 70.1289 67.5234 67.9727 67.5234 65.1602C67.5234 62.3945 66.6797 60.1914 64.9922 58.5508C63.3047 56.8867 60.9844 56.0312 58.0312 55.9844H47.0977V73.8438Z" fill="#212121"/>
<path d="M104.754 89.6641C104.754 88.1406 104.121 86.9805 102.855 86.1836C101.613 85.3867 99.5391 84.6836 96.6328 84.0742C93.7266 83.4648 91.3008 82.6914 89.3555 81.7539C85.0898 79.6914 82.957 76.7031 82.957 72.7891C82.957 69.5078 84.3398 66.7656 87.1055 64.5625C89.8711 62.3594 93.3867 61.2578 97.6523 61.2578C102.199 61.2578 105.867 62.3828 108.656 64.6328C111.469 66.8828 112.875 69.8008 112.875 73.3867H104.332C104.332 71.7461 103.723 70.3867 102.504 69.3086C101.285 68.207 99.668 67.6562 97.6523 67.6562C95.7773 67.6562 94.2422 68.0898 93.0469 68.957C91.875 69.8242 91.2891 70.9844 91.2891 72.4375C91.2891 73.75 91.8398 74.7695 92.9414 75.4961C94.043 76.2227 96.2695 76.9609 99.6211 77.7109C102.973 78.4375 105.598 79.3164 107.496 80.3477C109.418 81.3555 110.836 82.5742 111.75 84.0039C112.688 85.4336 113.156 87.168 113.156 89.207C113.156 92.6289 111.738 95.4062 108.902 97.5391C106.066 99.6484 102.352 100.703 97.7578 100.703C94.6406 100.703 91.8633 100.141 89.4258 99.0156C86.9883 97.8906 85.0898 96.3438 83.7305 94.375C82.3711 92.4062 81.6914 90.2852 81.6914 88.0117H89.9883C90.1055 90.0273 90.8672 91.5859 92.2734 92.6875C93.6797 93.7656 95.543 94.3047 97.8633 94.3047C100.113 94.3047 101.824 93.8828 102.996 93.0391C104.168 92.1719 104.754 91.0469 104.754 89.6641Z" fill="#474747"/>
<defs>
<filter id="filter0_d_24_39" x="0" y="0" width="150" height="160" filterUnits="userSpaceOnUse" color-interpolation-filters="sRGB">
<feFlood flood-opacity="0" result="BackgroundImageFix"/>
<feColorMatrix in="SourceAlpha" type="matrix" values="0 0 0 0 0 0 0 0 0 0 0 0 0 0 0 0 0 0 127 0" result="hardAlpha"/>
<feOffset dy="10"/>
<feComposite in2="hardAlpha" operator="out"/>
<feColorMatrix type="matrix" values="0 0 0 0 0.729412 0 0 0 0 0.729412 0 0 0 0 0.729412 0 0 0 1 0"/>
<feBlend mode="normal" in2="BackgroundImageFix" result="effect1_dropShadow_24_39"/>
<feBlend mode="normal" in="SourceGraphic" in2="effect1_dropShadow_24_39" result="shape"/>
</filter>
</defs>
</svg>
