<svg width="150" height="160" viewBox="0 0 150 160" fill="none" xmlns="http://www.w3.org/2000/svg">
<g filter="url(#filter0_d_14_144)">
<rect width="150" height="150" rx="15" fill="#767676"/>
<rect x="4" y="4" width="142" height="142" rx="11" stroke="#BABABA" stroke-width="8"/>
</g>
<path d="M90.7854 106.107L88.2103 108.575V109.004L88.5322 109.219L89.2833 109.004L91.1073 108.253L92.9313 106.751L94.3262 103.854L94.7554 100.957L94.3262 98.4893L92.9313 95.6996L90.7854 93.3391L87.5665 90.764L83.8112 89.3691L80.0558 88.9399H75.0129L69.0043 89.9056L66.9657 95.6996L67.2876 96.4506L67.7167 99.6695L67.2876 102.996L66.1073 106L64.0687 109.326L61.4936 111.794L57.7382 113.725L54.412 114.155L52.1588 112.867V109.755L53.7682 106L55.6996 102.996L59.3476 100.099L62.5665 97.6309L66.8584 95.5923L68.897 89.9056L62.1373 84.0043L56.7725 79.7124L53.4464 76.7082L51.3004 73.2747L50.2275 70.1631V65.9785L51.7296 62.0086L54.5193 58.0386L58.1674 54.3906L63.4249 50.3133L71.2575 45.6996L77.9099 42.4807L83.1674 40.5494L88.5322 39.0472L95.0773 38.2961L100.871 38.618L105.378 40.0129L108.489 42.6953L109.884 46.1288L109.133 50.0987L106.343 55.0343L103.339 58.6824L98.7253 62.1159L92.824 65.0129L87.2446 67.2661L82.309 68.1245H78.4464L74.9056 67.2661L71.2575 65.4421L69.2189 63.7253L68.5751 63.9399V65.0129L68.897 66.6223L71.0429 68.9828L74.2618 71.0215L78.9828 72.0944H85.0987L89.6052 71.5579L95.5064 69.9485L102.91 66.4077L108.06 62.6524L111.386 58.6824L113.854 54.3906L115.464 50.206L116 45.9142L115.785 42.8026L114.605 39.2618L111.386 35.9356L108.06 33.7897L100.871 31.5365L94.0043 31L82.8455 32.3948L69.5408 37.5451L62.5665 41.4077L54.9485 46.3433L48.8326 51.9227L45.0773 56.5365L41.8584 62.5451L41 67.2661L41.8584 71.0215L43.897 75.0987L49.2618 81L54.412 84.97L59.3476 88.5107L64.0687 92.0515L59.7768 94.6266L55.6996 97.2017L52.1588 99.6695L49.2618 102.137L47.6524 104.069L45.8283 107.609L45.0773 111.15L45.2918 114.262L46.3648 117.266L48.1888 118.983L50.7639 119.841H57.7382L62.3519 117.91L67.7167 113.725L70.3991 109.755L72.1159 104.712L72.3305 101.279V96.8798L71.2575 93.3391L73.5107 92.9099H76.7296H80.5923L82.8455 93.3391L85.5279 94.0901L88.6395 96.1288L90.7854 97.8455L92.073 100.957V103.318L91.7511 104.927L90.7854 106.107Z" fill="#212121" stroke="#212121"/>
<defs>
<filter id="filter0_d_14_144" x="0" y="0" width="150" height="160" filterUnits="userSpaceOnUse" color-interpolation-filters="sRGB">
<feFlood flood-opacity="0" result="BackgroundImageFix"/>
<feColorMatrix in="SourceAlpha" type="matrix" values="0 0 0 0 0 0 0 0 0 0 0 0 0 0 0 0 0 0 127 0" result="hardAlpha"/>
<feOffset dy="10"/>
<feComposite in2="hardAlpha" operator="out"/>
<feColorMatrix type="matrix" values="0 0 0 0 0.729412 0 0 0 0 0.729412 0 0 0 0 0.729412 0 0 0 1 0"/>
<feBlend mode="normal" in2="BackgroundImageFix" result="effect1_dropShadow_14_144"/>
<feBlend mode="normal" in="SourceGraphic" in2="effect1_dropShadow_14_144" result="shape"/>
</filter>
</defs>
</svg>
