<svg width="150" height="160" viewBox="0 0 150 160" fill="none" xmlns="http://www.w3.org/2000/svg">
<g filter="url(#filter0_d_24_37)">
<rect width="150" height="150" rx="15" fill="#767676"/>
<rect x="4" y="4" width="142" height="142" rx="11" stroke="#BABABA" stroke-width="8"/>
</g>
<path d="M76.8838 53.6558H58.373V104H45.9219V53.6558H27.6602V43.5703H76.8838V53.6558Z" fill="#212121"/>
<path d="M107.555 91.5903C107.555 90.1239 106.822 88.9756 105.355 88.1455C103.917 87.2878 101.592 86.5269 98.3828 85.8628C87.7025 83.6216 82.3623 79.0838 82.3623 72.2495C82.3623 68.2651 84.0086 64.9448 87.3013 62.2886C90.6216 59.6047 94.9518 58.2627 100.292 58.2627C105.992 58.2627 110.543 59.6047 113.947 62.2886C117.378 64.9725 119.093 68.4588 119.093 72.7476H107.099C107.099 71.0321 106.545 69.6209 105.438 68.5142C104.332 67.3797 102.602 66.8125 100.25 66.8125C98.2306 66.8125 96.6673 67.269 95.5605 68.1821C94.4538 69.0952 93.9004 70.2573 93.9004 71.6685C93.9004 72.9966 94.5229 74.0757 95.7681 74.9058C97.0409 75.7082 99.1714 76.4137 102.16 77.0225C105.148 77.6035 107.666 78.2676 109.713 79.0146C116.05 81.3389 119.218 85.3647 119.218 91.0923C119.218 95.1873 117.461 98.5076 113.947 101.053C110.433 103.571 105.895 104.83 100.333 104.83C96.5705 104.83 93.2225 104.166 90.2896 102.838C87.3843 101.482 85.1016 99.6421 83.4414 97.3179C81.7812 94.966 80.9512 92.4342 80.9512 89.7227H92.3232C92.4339 91.8532 93.2225 93.4857 94.689 94.6201C96.1554 95.7546 98.12 96.3218 100.583 96.3218C102.879 96.3218 104.608 95.8929 105.771 95.0352C106.96 94.1497 107.555 93.0015 107.555 91.5903Z" fill="#474747"/>
<defs>
<filter id="filter0_d_24_37" x="0" y="0" width="150" height="160" filterUnits="userSpaceOnUse" color-interpolation-filters="sRGB">
<feFlood flood-opacity="0" result="BackgroundImageFix"/>
<feColorMatrix in="SourceAlpha" type="matrix" values="0 0 0 0 0 0 0 0 0 0 0 0 0 0 0 0 0 0 127 0" result="hardAlpha"/>
<feOffset dy="10"/>
<feComposite in2="hardAlpha" operator="out"/>
<feColorMatrix type="matrix" values="0 0 0 0 0.729412 0 0 0 0 0.729412 0 0 0 0 0.729412 0 0 0 1 0"/>
<feBlend mode="normal" in2="BackgroundImageFix" result="effect1_dropShadow_24_37"/>
<feBlend mode="normal" in="SourceGraphic" in2="effect1_dropShadow_24_37" result="shape"/>
</filter>
</defs>
</svg>
